<?xml version="1.0" encoding="UTF-8"?>
<svg version="1.1" xmlns="http://www.w3.org/2000/svg" width="1024" height="1024">
<path d="M0 0 C174.57 0 349.14 0 529 0 C529.33 0.66 529.66 1.32 530 2 C533.02218209 3.41857527 536.00347253 4.67021393 539.171875 5.71875 C544.73908761 7.58803307 544.73908761 7.58803307 546.1875 9.875 C546.455625 10.57625 546.72375 11.2775 547 12 C547.7425 12.721875 548.485 13.44375 549.25 14.1875 C557.99900316 23.13534414 562.10823698 32.80634349 562.59936523 45.17308044 C562.63844466 46.05476755 562.67752409 46.93645465 562.71778774 47.84485954 C563.08814073 56.87023845 563.12667487 65.8867962 563.09765625 74.91821289 C563.0957653 76.72087977 563.09434599 78.52354719 563.09335136 80.32621479 C563.0902886 84.18587464 563.08411511 88.04551161 563.07540512 91.90516281 C563.06144953 98.11992878 563.05475914 104.33469066 563.04910278 110.54946899 C563.04161878 118.30394642 563.03255942 126.0584188 563.02149737 133.81289196 C563.00031152 148.81577462 562.99269152 163.81863647 562.99169922 178.8215332 C562.99162141 179.96958777 562.99154359 181.11764234 562.99146342 182.30048645 C562.99106624 190.40605353 562.9914892 198.51162045 562.9921875 206.6171875 C562.99232039 208.33906631 562.99232039 208.33906631 562.99245596 210.09573054 C562.99353246 223.60520691 562.99567704 237.11468272 562.99863088 250.6241588 C562.99999004 257.58525531 562.99956508 264.54634984 562.99816895 271.50744629 C562.99533926 289.3598941 563.0061931 307.21203991 563.0802803 325.0643568 C563.11163525 332.71252162 563.12666303 340.36028392 563.11774743 348.00851107 C563.11295596 353.7223747 563.13934296 359.43574061 563.17855453 365.14945602 C563.18952293 367.43193352 563.19053707 369.71448587 563.18042374 371.99696732 C563.16836285 375.06225298 563.19295813 378.12511635 563.22705078 381.19018555 C563.21482986 382.06276032 563.20260895 382.9353351 563.1900177 383.83435154 C563.34464105 391.43771482 566.68750149 396.68750149 572 402 C572.96446027 403.44807905 573.89792516 404.91686111 574.81640625 406.39453125 C578.19958811 411.76709772 581.66122492 417.08368874 585.15234375 422.38671875 C585.70097076 423.22026886 586.24959778 424.05381897 586.81484985 424.91262817 C588.52175394 427.50467826 590.22960494 430.09610279 591.9375 432.6875 C593.11010344 434.46804799 594.2826301 436.24864654 595.45507812 438.02929688 C598.30250062 442.35344804 601.15096099 446.67691375 604 451 C604.66 450.34 605.32 449.68 606 449 C605.92007813 449.70125 605.84015625 450.4025 605.7578125 451.125 C606.08165059 454.96927151 607.64040046 456.88269388 609.875 460 C616.72204823 469.62022546 617.98578593 478.45797785 617 490 C615.42447005 498.36381329 612.37366292 505.40847422 607 512 C606.44828125 512.68707031 605.8965625 513.37414062 605.328125 514.08203125 C598.66008508 521.53370834 586.86886977 528.35272933 576.76199094 529.18409221 C573.99585859 529.25949982 571.23626881 529.26875594 568.46911335 529.25726891 C567.4034988 529.26077498 566.33788425 529.26428105 565.23997834 529.26789337 C561.6510077 529.27723501 558.06219834 529.27227686 554.47322083 529.26742554 C551.88138133 529.2711604 549.28954297 529.27576126 546.6977064 529.28115618 C541.05302025 529.29146516 535.40836841 529.29429842 529.76367378 529.29224396 C521.36962844 529.28919629 512.97562111 529.29751279 504.58158315 529.30799321 C488.71748872 529.32734666 472.85340721 529.33296194 456.98930237 529.33410732 C444.738392 529.33502606 432.48748671 529.33914088 420.23657799 529.34550858 C416.7114233 529.34730364 413.18626861 529.34908327 409.66111392 529.35085833 C408.784771 529.35130043 407.90842807 529.35174252 407.0055293 529.35219802 C382.35131909 529.36450857 357.69711064 529.37239893 333.04289722 529.37151146 C332.11315162 529.3714803 331.18340602 529.37144914 330.2254863 529.37141704 C325.51304935 529.37125083 320.8006124 529.37105274 316.08817545 529.37084763 C315.15225361 529.37080774 314.21633177 529.37076785 313.25204866 529.37072675 C311.35938565 529.37064587 309.46672263 529.37056228 307.57405961 529.37047596 C278.12869903 529.36925051 248.68338451 529.38426168 219.23803711 529.41162109 C186.16291312 529.44234041 153.08781939 529.45955366 120.01268023 529.45769465 C116.48595377 529.45754539 112.95922731 529.45744797 109.43250084 529.45738602 C108.56411984 529.45736271 107.69573885 529.4573394 106.80104327 529.45731538 C92.82441688 529.45725383 78.84783046 529.47002753 64.87121596 529.48725055 C50.82433842 529.50420213 36.77751939 529.5061846 22.73063729 529.4930319 C14.38560791 529.48563942 6.04075621 529.48930953 -2.30425435 529.50891658 C-8.53563229 529.5223204 -14.76682057 529.51481373 -20.99818961 529.49917014 C-23.51905181 529.49608886 -26.03993321 529.49977482 -28.5607728 529.51089029 C-31.98746643 529.52499999 -35.41324504 529.51443268 -38.83990765 529.49777794 C-39.81842869 529.5077143 -40.79694974 529.51765066 -41.80512294 529.52788812 C-48.87359214 529.4552651 -54.50733106 527.70016357 -61 525 C-61.88014275 524.67313923 -62.7602855 524.34627845 -63.66709925 524.0095128 C-72.27460806 520.74599988 -76.84145733 513.20561943 -82 506 C-82.55816406 505.25878906 -83.11632812 504.51757812 -83.69140625 503.75390625 C-84.84592812 502.20650231 -85.92907234 500.60639149 -87 499 C-86.67 498.01 -86.34 497.02 -86 496 C-86.33114829 494.66612231 -86.66508023 493.33293572 -87 492 C-88.00701012 476.26753041 -84.9045438 466.09871298 -76 453 C-75.13372913 451.69382596 -74.26926814 450.38645047 -73.40625 449.078125 C-68.50382719 441.66125003 -63.53055791 434.29374602 -58.5144043 426.95336914 C-56.61893164 424.17861662 -54.72939811 421.39987876 -52.83984375 418.62109375 C-50.25468207 414.82312382 -47.63868221 411.04884575 -45.00390625 407.28515625 C-43.73138586 405.44036966 -42.4592368 403.59532686 -41.1875 401.75 C-40.59469238 400.91750732 -40.00188477 400.08501465 -39.39111328 399.22729492 C-38.84310059 398.42525635 -38.29508789 397.62321777 -37.73046875 396.796875 C-37.00960083 395.76578613 -37.00960083 395.76578613 -36.27416992 394.71386719 C-31.80647714 385.1980839 -32.73430263 374.26656502 -32.78881836 364.00585938 C-32.79102255 362.19484542 -32.79232568 360.38383018 -32.7928009 358.57281494 C-32.79572181 354.69109999 -32.80492563 350.80947016 -32.81910515 346.92778015 C-32.84144677 340.79352938 -32.84947304 334.65930975 -32.85560608 328.52502441 C-32.86696182 318.83082396 -32.88767543 309.1366703 -32.91250378 299.44249582 C-32.95694585 282.05619592 -32.98998825 264.669879 -33.01274782 247.28353739 C-33.02116888 241.18082825 -33.03520588 235.07816475 -33.05372036 228.97547817 C-33.06433236 225.19070449 -33.07093556 221.40593126 -33.07652092 217.62114716 C-33.08000265 215.86106178 -33.08522881 214.1009789 -33.09228897 212.34090424 C-33.10168479 209.94677553 -33.10500968 207.55271397 -33.10679626 205.15856934 C-33.11321189 204.10363793 -33.11321189 204.10363793 -33.11975712 203.02739477 C-33.11406457 198.22812915 -33.11406457 198.22812915 -32 196 C-32.66 195.67 -33.32 195.34 -34 195 C-33.67 194.67 -33.34 194.34 -33 194 C-32.90607789 192.36273378 -32.88256447 190.72138943 -32.88647461 189.08143616 C-32.8865451 188.01538147 -32.8866156 186.94932678 -32.88668823 185.85096741 C-32.89185455 184.6704631 -32.89702087 183.4899588 -32.90234375 182.27368164 C-32.90380402 181.03758148 -32.90526428 179.80148132 -32.9067688 178.52792358 C-32.91058864 175.82801935 -32.91622707 173.12818754 -32.92483521 170.42830086 C-32.93837774 166.13225159 -32.94425898 161.83621265 -32.94897461 157.54014587 C-32.9610358 147.61110475 -32.98283275 137.68208944 -33.00520325 127.75306702 C-33.02552724 118.71836323 -33.04360829 109.6836698 -33.05341816 100.64894766 C-33.05752057 97.09231008 -33.06368734 93.53570413 -33.07516479 89.97908211 C-33.10363276 80.98553396 -33.0906649 71.99325596 -33 63 C-32.9817215 61.17217043 -32.9817215 61.17217043 -32.96307373 59.30741501 C-32.91514216 55.78393094 -32.83663275 52.26261204 -32.74609375 48.73999023 C-32.72531517 47.19768156 -32.72531517 47.19768156 -32.70411682 45.62421513 C-32.37310182 35.52372128 -29.08687786 25.20488239 -23 17 C-22.01 16.67 -21.02 16.34 -20 16 C-19.69191406 15.38125 -19.38382812 14.7625 -19.06640625 14.125 C-15.85085882 7.71746227 -6.32422546 4.54165089 0 2 C0 1.34 0 0.68 0 0 Z M9.50812423 40.68071681 C7.6455439 43.54510368 7.49979685 45.20009594 7.49942875 48.60630894 C7.48961446 49.75497678 7.47980017 50.90364463 7.46968848 52.08712059 C7.47929348 53.34965391 7.48889849 54.61218722 7.49879456 55.91297913 C7.49490264 57.26723373 7.48926308 58.62148426 7.48202366 59.97572511 C7.4672351 63.70075696 7.47747005 67.42536754 7.49176037 71.15038598 C7.50284701 75.16611023 7.49093529 79.18177426 7.48191833 83.19749451 C7.46796844 91.06542605 7.47555473 98.93319736 7.49059392 106.8011213 C7.5074323 115.95791851 7.50424654 125.11467557 7.50049984 134.27148347 C7.49461814 150.60558197 7.50880541 166.93960344 7.53344727 183.27368164 C7.55737288 199.13471362 7.5644504 214.99564267 7.55395508 230.85668945 C7.54255436 248.11701123 7.54060501 265.37728537 7.55505317 282.63760656 C7.55657906 284.47687908 7.55809942 286.31615159 7.55961418 288.15542412 C7.560372 289.0604502 7.56112981 289.96547628 7.56191059 290.89792739 C7.56665966 297.2855615 7.5647976 303.67317439 7.56054878 310.06080818 C7.55563 317.84099211 7.56157125 325.6210786 7.58144308 333.40124018 C7.59133717 337.37323413 7.5963975 341.34507949 7.58855057 345.31708145 C7.58152099 348.94957242 7.58823387 352.58176284 7.6061542 356.21421402 C7.61214834 358.15834519 7.60334596 360.10250435 7.59410769 362.04662281 C7.60254763 363.19268291 7.61098757 364.33874301 7.61968327 365.5195322 C7.6207124 366.5126109 7.62174152 367.50568959 7.62280184 368.52886158 C7.80585064 371.03352743 7.80585064 371.03352743 9.3362698 372.78002924 C13.24434953 375.64572405 17.59679076 375.14280267 22.21071434 375.13422108 C23.06192985 375.13657331 23.91314537 375.13892554 24.79015529 375.14134905 C27.66776385 375.14805295 30.54532739 375.14758041 33.42294312 375.14717102 C35.4967441 375.15046876 37.57054445 375.15419414 39.64434397 375.1583125 C45.36290545 375.16835051 51.08145642 375.17205217 56.80002546 375.17470181 C62.95963966 375.17859943 69.1192455 375.18817802 75.27885437 375.19691467 C89.45887396 375.21575766 103.63889163 375.2259365 117.81892022 375.23437535 C124.82330219 375.23858026 131.82768331 375.24380241 138.83206455 375.24905988 C162.80020829 375.26694927 186.76835227 375.28194677 210.73650169 375.28938007 C212.24139592 375.28985483 213.74629015 375.29033072 215.25118438 375.29080774 C215.99748771 375.29104411 216.74379104 375.29128049 217.51270963 375.29152403 C221.29395486 375.29272525 225.07520009 375.29394069 228.85644531 375.29516602 C229.98205044 375.29552624 229.98205044 375.29552624 231.13039507 375.29589374 C255.47183048 375.30379039 279.81321722 375.32723015 304.15463137 375.35972196 C329.8790867 375.39399734 355.60351354 375.41372901 381.32799208 375.41702431 C384.15028804 375.41744187 386.97258398 375.41792143 389.79487991 375.41844749 C390.83730203 375.41863228 390.83730203 375.41863228 391.90078317 375.4188208 C403.09763674 375.4211555 414.29443389 375.43683027 425.49126733 375.45728934 C436.73900608 375.4775159 447.98667789 375.48270546 459.23443769 375.47351871 C465.33119971 375.46895696 471.42777802 375.47096874 477.52451515 375.49028015 C483.1007036 375.50779086 488.67657267 375.50701312 494.25276394 375.49138286 C496.27496096 375.48898831 498.29717941 375.49342489 500.31934349 375.50521151 C503.05915718 375.52019779 505.79781965 375.51075048 508.53760338 375.49498463 C509.7270931 375.51031794 509.7270931 375.51031794 510.94061291 375.52596101 C514.67358772 375.47877859 516.79402739 375.13233912 519.96639979 373.09406346 C523.14157422 369.82448436 523.13662994 367.89758309 523.125 363.4375 C523.12886719 361.95056641 523.12886719 361.95056641 523.1328125 360.43359375 C523.27438431 358.05187652 523.27438431 358.05187652 522 357 C521.95936168 355.33382885 521.957279 353.66611905 522 352 C522.33 352 522.66 352 523 352 C523.02472278 345.94938454 523.04287086 339.89879851 523.05493164 333.84814453 C523.05995973 331.78987109 523.06678306 329.73160122 523.07543945 327.67333984 C523.08757166 324.71450926 523.09324357 321.75572592 523.09765625 318.796875 C523.10281754 317.87694763 523.10797882 316.95702026 523.11329651 316.00921631 C523.11337204 315.1486261 523.11344757 314.28803589 523.11352539 313.40136719 C523.11685631 312.26885529 523.11685631 312.26885529 523.12025452 311.11346436 C523.06632697 308.96150087 523.06632697 308.96150087 522.43040466 306.78741455 C522.28837112 306.19756775 522.14633759 305.60772095 522 305 C522.33 304.67 522.66 304.34 523 304 C523.23961213 299.76685233 523.32488647 296.63263511 521 293 C521.66 292.67 522.32 292.34 523 292 C523.02480683 287.81909587 523.04291049 283.63823128 523.05493164 279.45727539 C523.05994565 278.03636936 523.06675852 276.61546844 523.07543945 275.19458008 C523.08763388 273.14663424 523.09325772 271.0987569 523.09765625 269.05078125 C523.10289307 267.82012939 523.10812988 266.58947754 523.11352539 265.3215332 C523.01392562 262.40743679 522.57792364 259.84252086 522 257 C522.33 256.67 522.66 256.34 523 256 C523.32328537 250.86546765 523.06656542 246.0280941 522 241 C522.33 240.01 522.66 239.02 523 238 C522.835 237.195625 522.67 236.39125 522.5 235.5625 C521.98666488 232.93165749 522.16441342 231.50675973 523 229 C522.34 229 521.68 229 521 229 C521.49113281 227.94232422 521.49113281 227.94232422 521.9921875 226.86328125 C523.08400722 223.76132833 523.20385396 221.45993947 523.125 218.1875 C523.09792969 216.72376953 523.09792969 216.72376953 523.0703125 215.23046875 C523.04710937 214.49441406 523.02390625 213.75835937 523 213 C522.34 213 521.68 213 521 213 C521.33 212.319375 521.66 211.63875 522 210.9375 C523.6328591 206.14097639 523.28546975 201.82051156 522 197 C521.96213099 195.33376361 521.95372155 193.66602403 522 192 C522.33 192 522.66 192 523 192 C523.0231271 183.80309439 523.04091696 175.60620232 523.05181217 167.40927219 C523.0570402 163.60348423 523.06413638 159.79771852 523.07543945 155.99194336 C523.0862712 152.32207456 523.09227744 148.65222722 523.09487724 144.98234367 C523.09673097 143.57925008 523.1003506 142.17615771 523.10573006 140.7730732 C523.11294419 138.8143032 523.11340809 136.8555118 523.11352539 134.89672852 C523.11685631 133.22127708 523.11685631 133.22127708 523.12025452 131.51197815 C523.28510776 129.06094586 523.28510776 129.06094586 522 128 C521.875 124.5 521.875 124.5 522 121 C522.33 120.67 522.66 120.34 523 120 C523.25121222 116.92465582 523.18522873 113.83439033 523.1875 110.75 C523.19974609 109.89019531 523.21199219 109.03039062 523.22460938 108.14453125 C523.23499126 103.65263496 523.13169619 100.07802749 521 96 C521.66 96 522.32 96 523 96 C523.07610425 88.9708551 523.12862273 81.94181658 523.16479492 74.91235352 C523.17987543 72.5213626 523.20034277 70.13039932 523.22631836 67.73950195 C523.26273306 64.30152565 523.27973399 60.86391531 523.29296875 57.42578125 C523.30845261 56.35789871 523.32393646 55.29001617 523.33988953 54.18977356 C523.4431323 47.0597166 523.4431323 47.0597166 520 41 C516.19730811 38.46487208 513.16076312 38.72012736 508.75525761 38.74273109 C507.47291982 38.73747198 507.47291982 38.73747198 506.16467622 38.73210663 C503.2745207 38.72273687 500.38456423 38.72773023 497.49440002 38.73257446 C495.41163576 38.72884102 493.3288729 38.72424073 491.24611229 38.71884382 C485.50280207 38.70656076 479.75954988 38.7068805 474.01622951 38.70923257 C467.83004466 38.7096394 461.64387875 38.6986145 455.45770264 38.68911743 C443.33078355 38.67247781 431.20388921 38.6669807 419.0769617 38.66589268 C409.22437465 38.66497447 399.37179391 38.6608624 389.51920891 38.65449142 C386.68573044 38.65269641 383.85225197 38.65091678 381.0187735 38.64914167 C380.31441498 38.64869957 379.61005647 38.64825748 378.88435376 38.64780198 C359.06603087 38.63548972 339.24771017 38.62760126 319.42938328 38.62848854 C318.68183777 38.6285197 317.93429226 38.62855086 317.16409386 38.62858296 C313.3750008 38.62874918 309.58590774 38.62894726 305.79681469 38.62915237 C305.04425197 38.62919226 304.29168924 38.62923215 303.51632159 38.62927325 C301.99445613 38.62935413 300.47259067 38.62943772 298.95072521 38.62952404 C275.26587235 38.63074991 251.58107672 38.61573121 227.89624023 38.58837891 C201.30281568 38.55768049 174.70942873 38.54044503 148.11598533 38.54230535 C145.28219251 38.54245462 142.44839969 38.54255203 139.61460686 38.54261398 C138.91682506 38.54263729 138.21904326 38.5426606 137.50011656 38.54268462 C126.25471825 38.54274625 115.00936951 38.52995645 103.76398595 38.51274945 C92.46921111 38.49582389 81.17450822 38.49413913 69.87972135 38.5069681 C63.7567586 38.51352377 57.63397609 38.5135216 51.5110302 38.4962616 C45.91206664 38.48064039 40.31342787 38.48328151 34.71447276 38.50082986 C32.68287477 38.50392405 30.65125318 38.50017749 28.61968298 38.48910971 C25.8695831 38.47511309 23.12064228 38.48547604 20.37058353 38.50222206 C19.17234026 38.48731752 19.17234026 38.48731752 17.94989005 38.47211188 C14.52437582 38.51657045 12.37897053 38.7443925 9.50812423 40.68071681 Z M522 122 C523 124 523 124 523 124 Z M522 125 C523 128 523 128 523 128 Z M522 226 C523 228 523 228 523 228 Z M522 294 C523 296 523 296 523 296 Z M522 305 C523 308 523 308 523 308 Z M522 353 C523 356 523 356 523 356 Z M-15.33670044 426.74351501 C-16.75935103 429.60729491 -17.95749042 432.43061523 -19.02838635 435.44243419 C-20.37656612 438.99123004 -22.28302025 441.60780789 -24.578125 444.6171875 C-25.1961499 445.50269287 -25.8141748 446.38819824 -26.45092773 447.30053711 C-27.34146851 448.57489624 -27.34146851 448.57489624 -28.25 449.875 C-28.90621338 450.82060791 -29.56242676 451.76621582 -30.23852539 452.74047852 C-33.26184295 457.09551745 -36.30191046 461.433386 -39.41796875 465.72265625 C-39.93262695 466.44146973 -40.44728516 467.1602832 -40.97753906 467.90087891 C-41.9107813 469.20273622 -42.85570864 470.49634649 -43.81542969 471.77880859 C-47.00425786 476.26395929 -47.67672852 479.64544872 -48 485 C-45.1152114 487.47106316 -43.3713387 488.37520862 -39.57312405 488.38130885 C-38.68555407 488.3899966 -37.79798408 488.39868435 -36.88351804 488.40763536 C-35.91067308 488.40193036 -34.93782812 488.39622536 -33.93550301 488.39034748 C-32.89602377 488.39609658 -31.85654452 488.40184568 -30.78556591 488.40776899 C-27.2734479 488.42349296 -23.76168655 488.41772142 -20.24954224 488.41218567 C-17.71773497 488.41905161 -15.18593098 488.42722646 -12.65413177 488.43660372 C-7.13453553 488.454002 -1.61504616 488.46203288 3.90457535 488.46190834 C12.112378 488.46176026 20.32008298 488.47868687 28.52785712 488.49907071 C43.18553634 488.53491342 57.84320058 488.55373821 72.50091663 488.56557711 C85.32916755 488.57600958 98.1573942 488.59239721 110.98563004 488.61469078 C111.83570125 488.61616116 112.68577247 488.61763154 113.56160342 488.61914647 C117.01211643 488.62512588 120.46262939 488.63113684 123.91314227 488.63719289 C156.30100894 488.69397448 188.688877 488.73408095 221.07677654 488.76617835 C249.86387348 488.7947941 278.65092503 488.83597484 307.43798828 488.88842773 C309.28604078 488.89179134 311.13409327 488.89515461 312.98214577 488.89851753 C313.89577853 488.90018012 314.80941128 488.90184271 315.75072988 488.90355568 C320.34964768 488.91191727 324.94856553 488.92024878 329.54748344 488.92854786 C330.90836771 488.93100498 330.90836771 488.93100498 332.29674458 488.93351174 C356.33512433 488.97673929 380.37351716 489.01046703 404.4119159 489.04115504 C406.99804464 489.0444645 409.58417338 489.04777547 412.17030211 489.05108971 C413.88594639 489.05328607 415.60159067 489.05547492 417.31723497 489.05765621 C429.28732913 489.07295073 441.25741253 489.09192113 453.22749713 489.1133885 C468.65342757 489.14104218 484.07934325 489.16217406 499.50529633 489.17171214 C507.66691675 489.17695034 515.82848581 489.18769451 523.99008685 489.20634662 C530.0761091 489.21962955 536.16208792 489.22244693 542.24812652 489.22109183 C544.71647288 489.22217253 547.18482047 489.22667179 549.65315352 489.23484788 C552.99678218 489.24541608 556.3401842 489.24372781 559.68382072 489.23885822 C560.65198335 489.24485905 561.62014598 489.25085988 562.61764687 489.25704256 C567.42646606 489.23640901 571.56505235 489.09962589 576 487 C578.05978738 483.67719511 578.05978738 483.67719511 578 480 C576.76857853 477.5165612 576.76857853 477.5165612 575 474.984375 C574.35716064 474.0137915 573.71432129 473.04320801 573.05200195 472.04321289 C572.37484131 471.03895264 571.69768066 470.03469238 571 469 C569.72216271 467.05631396 568.44481863 465.11230358 567.16796875 463.16796875 C565.84295074 461.17327904 564.51608561 459.17981525 563.1875 457.1875 C562.48681396 456.13578613 561.78612793 455.08407227 561.06420898 454.00048828 C556.5804613 447.29578988 552.01062975 440.68119516 547.2109375 434.19921875 C545.57489343 431.83186877 544.19944964 429.60148665 542.8515625 427.08203125 C542.48732178 426.43121582 542.12308105 425.78040039 541.74780273 425.10986328 C540.75801148 423.3153396 539.82020392 421.4924159 538.88671875 419.66796875 C531.29278423 412.64948799 511.49888338 415.79141175 501.4927063 415.73170471 C499.31427987 415.71549632 497.13585598 415.69894351 494.95743454 415.68207783 C488.99576001 415.63730315 483.0340598 415.59868384 477.07233405 415.56143534 C473.25622524 415.53711625 469.4401321 415.51106028 465.6240387 415.48443794 C416.59492028 415.14292481 367.56513552 414.93983706 318.53510141 414.78544434 C311.44250673 414.76301308 304.34991497 414.73970476 297.25732422 414.71606445 C296.47368618 414.71347064 295.69004815 414.71087683 294.88266351 414.70820441 C269.46484086 414.62355029 244.04814909 414.46483146 218.63097636 414.26692807 C192.47332836 414.06363085 166.31630062 413.93248803 140.15786773 413.89277821 C136.4615963 413.88713973 132.76532668 413.88069332 129.06905746 413.87376213 C128.34166986 413.87242532 127.61428226 413.87108852 126.8648526 413.8697112 C115.17689327 413.84614793 103.49074504 413.7471375 91.80350737 413.61973405 C80.05228082 413.49329 68.30306933 413.44939505 56.55119933 413.4834565 C50.18780871 413.49952769 43.82981158 413.48005709 37.46734238 413.3640213 C7.36471517 410.95671433 7.36471517 410.95671433 -15.33670044 426.74351501 Z " fill="#1F1F1E" transform="translate(247,248)"/>
<path d="M0 0 C4.17614666 2.27439372 6.26509346 4.44135171 8.2265625 8.7421875 C10.05959224 16.64883817 7.30671221 23.17585227 4.7109375 30.6171875 C4.27745258 31.88479067 3.84494753 33.15272928 3.41334534 34.42097473 C2.48410106 37.14497922 1.54826307 39.86659177 0.60714722 42.58651733 C-0.89930833 46.94056761 -2.39108068 51.29956064 -3.88061523 55.65942383 C-5.69976302 60.9811514 -7.52223672 66.30171583 -9.34907436 71.6208086 C-13.70052809 84.29235263 -17.99479494 96.98299993 -22.28142166 109.67659092 C-23.86112944 114.35388118 -25.44449096 119.02992272 -27.02978516 123.70532227 C-31.24991185 136.15387769 -35.45843725 148.60601243 -39.6268158 161.07200623 C-41.30480825 166.08988362 -42.98854244 171.10582888 -44.67359638 176.12133884 C-46.0337649 180.17157105 -47.38635733 184.22422421 -48.73303318 188.27896118 C-49.76286729 191.37194264 -50.80426752 194.46103161 -51.84375 197.55078125 C-52.20222519 198.63847809 -52.56070038 199.72617493 -52.93003845 200.84683228 C-59.77416672 221.0587849 -59.77416672 221.0587849 -66.0625 224.75 C-71.22709394 226.66827775 -76.29509613 227.22903081 -81.45703125 225.08203125 C-85.94746261 222.50773943 -88.97269449 219.73679546 -91.25 215 C-93.30206256 206.27590602 -90.49656679 199.19007322 -87.640625 191 C-87.15155382 189.55522252 -86.664094 188.10989869 -86.17816162 186.6640625 C-84.89972206 182.87432506 -83.59985862 179.09228961 -82.29516602 175.31152344 C-80.97811692 171.48290174 -79.68124357 167.64746696 -78.3828125 163.8125 C-76.69268015 158.82641833 -74.99672605 153.84244148 -73.28701401 148.86303711 C-72.64976015 147.00677927 -72.01435822 145.14988597 -71.37902832 143.29296875 C-70.67931078 141.25214485 -69.97530923 139.2127777 -69.26452637 137.17578125 C-67.71082722 132.69227339 -67.71082722 132.69227339 -67.25 128 C-66.59 128 -65.93 128 -65.25 128 C-65.08781982 127.2889209 -64.92563965 126.5778418 -64.75854492 125.84521484 C-62.58452286 116.70260278 -59.5298581 107.9993953 -56.30273438 99.18359375 C-55.71395508 97.53423828 -55.71395508 97.53423828 -55.11328125 95.8515625 C-54.57634644 94.37937256 -54.57634644 94.37937256 -54.02856445 92.87744141 C-53.19583187 89.79980383 -53.10970759 87.17349089 -53.25 84 C-52.59 84 -51.93 84 -51.25 84 C-50.89397705 82.9162207 -50.5379541 81.83244141 -50.17114258 80.71582031 C-43.93848434 61.76959589 -37.67638326 42.82774082 -31.01400757 24.02746582 C-30.4660912 22.47623312 -29.92308086 20.9232582 -29.38516235 19.36853027 C-28.63410967 17.20264399 -27.86470102 15.04418425 -27.08984375 12.88671875 C-26.44583618 11.06466919 -26.44583618 11.06466919 -25.78881836 9.20581055 C-20.63350242 -1.53422652 -10.49254157 -4.56734162 0 0 Z " fill="#1F1F1E" transform="translate(551.25,343)"/>
<path d="M0 0 C2.31665391 1.60291717 4.23958801 3.29949502 6.2109375 5.30859375 C8.04576754 7.04326932 9.75754137 7.88819278 12 9 C12.680625 10.1446875 12.680625 10.1446875 13.375 11.3125 C14.88677285 13.81273971 15.9572407 14.92209568 18.1875 16.6875 C19.115625 17.450625 20.04375 18.21375 21 19 C21 19.66 21 20.32 21 21 C21.556875 21.226875 22.11375 21.45375 22.6875 21.6875 C25.00029105 23.00016519 26.57143518 24.50484257 28.4201355 26.3916626 C30.28849903 28.29369847 32.18541244 30.16498271 34.08422852 32.03662109 C38.33678748 36.2355296 42.57996434 40.4437904 46.82006836 44.65527344 C48.64747044 46.46754613 50.47754997 48.27712301 52.31030273 50.08398438 C54.96532198 52.70252899 57.61045751 55.3307191 60.25390625 57.9609375 C61.47902672 59.16283218 61.47902672 59.16283218 62.72889709 60.38900757 C73.54780071 71.20470397 73.54780071 71.20470397 73.625 78.9375 C73.65851563 79.70964844 73.69203125 80.48179687 73.7265625 81.27734375 C71.72347564 88.78353484 64.52538593 94.749495 59.15234375 100.04296875 C58.41802628 100.77445633 57.6837088 101.50594391 56.92713928 102.25959778 C54.60195874 104.57368463 52.269902 106.88069429 49.9375 109.1875 C48.36867574 110.74627705 46.80031214 112.30551787 45.23242188 113.86523438 C42.35562105 116.72577917 39.47623281 119.58366006 36.59350586 122.43823242 C35.97474579 123.05177582 35.35598572 123.66531921 34.71847534 124.29745483 C33.63871376 125.36720708 32.55748761 126.43548515 31.47415161 127.50161743 C29.56323883 129.39073289 27.82104142 131.23449745 26.1875 133.375 C23.79544945 136.24546066 21.18529704 138.4902096 18.34375 140.90234375 C16.08753847 142.92165307 13.97219608 145.04018304 11.86669922 147.21508789 C1.76793244 157.61919832 1.76793244 157.61919832 -4.203125 158.22265625 C-6.13669672 158.24631884 -8.07102737 158.1353665 -10 158 C-10.495 158.99 -10.495 158.99 -11 160 C-11 159.01 -11 158.02 -11 157 C-11.721875 156.9175 -12.44375 156.835 -13.1875 156.75 C-17.93282617 155.48457969 -20.70386861 152.77785548 -23.25 148.6875 C-25.44255123 144.45515725 -26.69677651 140.65067427 -25.44140625 135.875 C-22.10452009 127.33257144 -15.37470949 121.34586465 -9 115 C-7.65421875 113.65421875 -7.65421875 113.65421875 -6.28125 112.28125 C-3.52083333 109.52083333 -0.76041667 106.76041667 2 104 C2.88816406 103.10023438 3.77632812 102.20046875 4.69140625 101.2734375 C7 99 7 99 9.4375 97.125 C12.25183818 94.79115858 14.39767732 92.24196727 16.66796875 89.390625 C17.10753906 88.93171875 17.54710937 88.4728125 18 88 C18.66 88 19.32 88 20 88 C20.226875 87.443125 20.45375 86.88625 20.6875 86.3125 C22.35896766 83.36753316 24.55276352 81.31843456 27 79 C25.48968674 75.46183947 23.42406644 73.16633853 20.71875 70.453125 C19.87699219 69.60878906 19.03523437 68.76445312 18.16796875 67.89453125 C17.28753906 67.02183594 16.40710938 66.14914062 15.5 65.25 C14.61957031 64.36183594 13.73914063 63.47367187 12.83203125 62.55859375 C11.56939453 61.29982422 11.56939453 61.29982422 10.28125 60.015625 C9.50845703 59.24508789 8.73566406 58.47455078 7.93945312 57.68066406 C6.17581471 55.78170431 6.17581471 55.78170431 4 56 C3.649375 55.13375 3.29875 54.2675 2.9375 53.375 C0.84191313 49.72462287 -1.28964156 47.82661147 -4.57421875 45.296875 C-5.04472656 44.86890625 -5.51523437 44.4409375 -6 44 C-6 43.34 -6 42.68 -6 42 C-7.485 41.505 -7.485 41.505 -9 41 C-10.75390625 39.1875 -10.75390625 39.1875 -12.5625 37 C-14.92210327 34.05040821 -14.92210327 34.05040821 -18 32 C-18 31.34 -18 30.68 -18 30 C-18.66 30 -19.32 30 -20 30 C-23.45598427 26.25078071 -25.37702605 22.1494963 -25.6875 17.0625 C-25.34735801 11.25323282 -23.05244406 7.11093294 -19 3 C-13.24141002 -1.16812227 -6.77043235 -2.28951819 0 0 Z " fill="#1F201F" transform="translate(616,376)"/>
<path d="M0 0 C5.40271475 4.26530112 9.50928516 8.82560775 10.375 15.875 C8.72054745 24.74888184 0.95642258 32.34626675 -6.0390625 37.734375 C-8.18085544 39.50733955 -9.75652855 41.11859574 -11.53515625 43.21875 C-17.31434385 49.97392943 -23.75994688 56.11434269 -30.0625 62.375 C-31.37979059 63.68726585 -32.69684986 64.99976395 -34.01367188 66.3125 C-37.2147861 69.50268506 -40.41901865 72.68970651 -43.625 75.875 C-41.59012517 79.53321124 -39.38767109 82.35336615 -36.41650391 85.29467773 C-35.57197662 86.13582626 -34.72744934 86.97697479 -33.85733032 87.84361267 C-32.94792694 88.73955643 -32.03852356 89.63550018 -31.1015625 90.55859375 C-30.15324611 91.50062965 -29.20544973 92.4431893 -28.25814819 93.38624573 C-25.76875616 95.86237495 -23.27385623 98.3328718 -20.77728271 100.80175781 C-16.78807804 104.74775925 -12.80555832 108.70047645 -8.82639694 112.65660286 C-7.44354333 114.02932883 -6.05709052 115.39842603 -4.67056274 116.7674408 C9.29939885 130.6301701 9.29939885 130.6301701 9.40625 138.04296875 C9.05285712 143.31735747 7.90578707 146.78672024 4.375 150.875 C-0.74155067 155.34577243 -6.04190436 157.35582408 -12.625 158.875 C-12.955 157.885 -13.285 156.895 -13.625 155.875 C-14.74624268 155.72087898 -14.74624268 155.72087898 -15.89013672 155.56364441 C-18.89564569 154.80685084 -20.13239846 153.93996106 -22.3828125 151.85668945 C-23.07149414 151.22324615 -23.76017578 150.58980286 -24.46972656 149.93716431 C-28.18384432 146.38349871 -31.86252507 142.80017329 -35.5 139.16796875 C-36.30993408 138.36136307 -37.11986816 137.55475739 -37.9543457 136.72370911 C-39.64974221 135.03334087 -41.3438177 133.34164672 -43.03662109 131.64868164 C-45.64010193 129.04741089 -48.25150696 126.45426868 -50.86328125 123.86132812 C-52.5135089 122.21403045 -54.16326578 120.56626101 -55.8125 118.91796875 C-56.5967334 118.14092087 -57.3809668 117.36387299 -58.18896484 116.5632782 C-58.90391113 115.84525528 -59.61885742 115.12723236 -60.35546875 114.38745117 C-60.98864014 113.7557048 -61.62181152 113.12395844 -62.27416992 112.47306824 C-63.625 110.875 -63.625 110.875 -63.625 108.875 C-64.24375 108.6275 -64.8625 108.38 -65.5 108.125 C-68.01210296 106.64729238 -68.38607344 105.43544823 -69.625 102.875 C-71.11 102.38 -71.11 102.38 -72.625 101.875 C-72.625 101.215 -72.625 100.555 -72.625 99.875 C-73.285 99.875 -73.945 99.875 -74.625 99.875 C-79.85694589 95.25857715 -87.87759454 87.8797783 -88.93359375 80.80859375 C-88.97613281 79.98488281 -89.01867187 79.16117187 -89.0625 78.3125 C-89.12308594 77.50683594 -89.18367188 76.70117188 -89.24609375 75.87109375 C-87.41544915 67.0402484 -79.56361266 60.37634225 -73.375 54.3125 C-72.5603125 53.49458984 -71.745625 52.67667969 -70.90625 51.83398438 C-64.8925047 45.875 -64.8925047 45.875 -62.625 45.875 C-62.23828125 45.00101562 -62.23828125 45.00101562 -61.84375 44.109375 C-60.52665983 41.6947097 -59.07411616 40.05759823 -57.125 38.125 C-56.21234375 37.20460938 -56.21234375 37.20460938 -55.28125 36.265625 C-53.625 34.875 -53.625 34.875 -51.625 34.875 C-51.625 34.215 -51.625 33.555 -51.625 32.875 C-50.965 32.875 -50.305 32.875 -49.625 32.875 C-49.295 31.885 -48.965 30.895 -48.625 29.875 C-46.1875 27.1875 -46.1875 27.1875 -43.625 24.875 C-42.965 24.875 -42.305 24.875 -41.625 24.875 C-41.625 24.215 -41.625 23.555 -41.625 22.875 C-39.75 20.75 -39.75 20.75 -37.625 18.875 C-36.965 18.875 -36.305 18.875 -35.625 18.875 C-35.625 18.215 -35.625 17.555 -35.625 16.875 C-34.965 16.875 -34.305 16.875 -33.625 16.875 C-33.625 16.215 -33.625 15.555 -33.625 14.875 C-31.99644223 13.14774176 -30.33992384 11.51294471 -28.625 9.875 C-27.41401972 8.66931942 -26.2057706 7.46089064 -25 6.25 C-23.875 5.125 -22.75 4 -21.625 2.875 C-21.10035156 2.32328125 -20.57570313 1.7715625 -20.03515625 1.203125 C-18.27612007 -0.45358498 -16.9819188 -0.69646931 -14.625 -1.125 C-13.75875 -1.434375 -13.75875 -1.434375 -12.875 -1.75 C-8.36706474 -2.50132254 -4.14370547 -1.77587377 0 0 Z " fill="#1F201F" transform="translate(424.625,377.125)"/>
<path d="M0 0 C1.23852722 -0.00335861 2.47705444 -0.00671722 3.75311279 -0.01017761 C7.12486206 -0.01800851 10.49654972 -0.0213526 13.86830378 -0.0219934 C15.97886445 -0.02270734 18.08941878 -0.02484804 20.19997787 -0.02749062 C27.57375241 -0.03671733 34.94750895 -0.04082843 42.32128906 -0.04003906 C49.17928384 -0.03943741 56.03720018 -0.05001322 62.8951751 -0.06578273 C68.80030406 -0.07887433 74.70540741 -0.08422235 80.61055076 -0.08358365 C84.13014678 -0.08332936 87.64967283 -0.08614344 91.1692543 -0.0967617 C95.09203393 -0.10827611 99.01470624 -0.10368595 102.9375 -0.09765625 C104.0950882 -0.10327576 105.25267639 -0.10889526 106.44534302 -0.11468506 C112.15848598 -0.09236474 116.95235027 0.21175444 122.33935547 2.14526367 C123.47373047 2.51651367 124.60810547 2.88776367 125.77685547 3.27026367 C126.62248047 3.55901367 127.46810547 3.84776367 128.33935547 4.14526367 C128.00935547 5.13526367 127.67935547 6.12526367 127.33935547 7.14526367 C127.81373047 8.07338867 128.28810547 9.00151367 128.77685547 9.95776367 C130.54397344 13.56268434 130.9716144 15.19364537 130.33935547 19.14526367 C128.0483719 24.09491953 125.49356887 27.95472298 120.33935547 30.14526367 C117.04483132 30.92446188 113.99024704 31.27129067 110.609375 31.2746582 C109.2162056 31.27928825 109.2162056 31.27928825 107.79489136 31.28401184 C106.78089264 31.28205307 105.76689392 31.2800943 104.72216797 31.27807617 C103.63332306 31.27962204 102.54447815 31.28116791 101.42263794 31.28276062 C97.76983979 31.28526343 94.11714369 31.27888346 90.46435547 31.27026367 C89.20490112 31.26771576 87.94544678 31.26516785 86.64782715 31.26254272 C78.92487951 31.24452436 71.20205493 31.21314753 63.47917938 31.17570972 C57.62821612 31.14840727 51.77728317 31.1344751 45.92626953 31.12329102 C37.81755867 31.1069027 29.70919346 31.06904001 21.6006794 31.00996017 C17.15692006 30.97795315 12.71347291 30.95410397 8.26959229 30.95025635 C4.04719094 30.94604387 -0.17440189 30.91785997 -4.39654922 30.87195778 C-5.95984325 30.85900677 -7.52323358 30.8544996 -9.08657455 30.85907555 C-22.49355128 30.8895888 -22.49355128 30.8895888 -27.02880859 27.80810547 C-30.14024267 24.66001535 -31.50036735 22.42378579 -32.66064453 18.14526367 C-32.63951648 15.32466894 -32.21185062 12.94722798 -31.66064453 10.14526367 C-31.56267578 9.46206055 -31.46470703 8.77885742 -31.36376953 8.07495117 C-30.39325069 5.41141612 -29.11912535 4.81078176 -26.66064453 3.45776367 C-25.93876953 3.04139648 -25.21689453 2.6250293 -24.47314453 2.19604492 C-16.83884222 -0.65621525 -8.03550145 -0.00315687 0 0 Z " fill="#1F201F" transform="translate(462.66064453125,700.854736328125)"/>
<path d="M0 0 C51.53492434 -0.03422324 103.06984953 -0.06606622 154.6047821 -0.08468628 C155.74816286 -0.08510045 155.74816286 -0.08510045 156.91464222 -0.08552299 C173.47889875 -0.09150825 190.04315541 -0.0970487 206.60741224 -0.10213066 C214.73005545 -0.10462542 222.85269863 -0.10721851 230.9753418 -0.10986328 C232.18781823 -0.11025556 232.18781823 -0.11025556 233.42478913 -0.11065576 C259.6433033 -0.11918446 285.86180887 -0.13421154 312.08031783 -0.15259444 C339.01437309 -0.17144482 365.94842359 -0.18376745 392.88248534 -0.18782998 C396.6832911 -0.18840632 400.48409684 -0.1890576 404.28490257 -0.18975449 C405.03298471 -0.18988933 405.78106685 -0.19002418 406.55181815 -0.19016311 C418.61302794 -0.19253017 430.67422305 -0.20181605 442.73542684 -0.21366407 C454.84940524 -0.22541719 466.96336902 -0.22994133 479.07735292 -0.22700275 C485.64567773 -0.2256118 492.21396769 -0.22774793 498.78228569 -0.23841095 C504.7870881 -0.24808848 510.79181785 -0.24867097 516.79662349 -0.24179779 C518.97701384 -0.24094735 521.15740857 -0.24353081 523.33779017 -0.24976636 C526.28590385 -0.257712 529.23375006 -0.2535158 532.18185902 -0.24609566 C533.04192886 -0.25134968 533.9019987 -0.25660371 534.78813127 -0.26201695 C538.70856092 -0.23949043 540.66310411 -0.22459726 544 2 C543.67 2.66 543.34 3.32 543 4 C542.23922921 3.92912957 541.47845841 3.85825914 540.69463396 3.78524113 C529.61046961 2.86455874 518.57873495 2.86596465 507.46374512 2.88647461 C505.29454312 2.886755 503.12534103 2.88659091 500.95613909 2.88602352 C495.02492075 2.88572928 489.09372263 2.89164396 483.16250896 2.89859343 C476.75494692 2.90498754 470.34738407 2.90553811 463.93981934 2.9067688 C452.84671197 2.90965089 441.7536114 2.9160624 430.6605072 2.92483521 C414.61533945 2.93746331 398.57017397 2.94348627 382.52500206 2.94776857 C375.04275287 2.94977433 367.56050377 2.95210184 360.0782547 2.95451355 C358.95495124 2.95487507 358.95495124 2.95487507 357.80895479 2.95524389 C340.00479684 2.96104876 322.20064069 2.97000613 304.39648438 2.97949219 C303.61793177 2.97990583 302.83937916 2.98031948 302.03723405 2.98074566 C290.1914893 2.98704331 278.34574464 2.99350532 266.5 3 C253.85351568 3.00693232 241.20703132 3.01379922 228.56054688 3.02050781 C227.78120132 3.0209224 227.00185577 3.02133699 226.19889369 3.02176414 C208.40839634 3.03121114 190.61789918 3.0397592 172.82740021 3.04548645 C171.70622342 3.04584794 171.70622342 3.04584794 170.5623966 3.04621673 C163.10109285 3.04860189 155.63978907 3.05082987 148.17848521 3.05282298 C132.14828181 3.05713996 116.11808635 3.06421697 100.08788723 3.07687083 C88.41020913 3.08604739 76.73253453 3.09173756 65.0548529 3.09398818 C58.72707439 3.09533619 52.39930779 3.09836403 46.0715332 3.10574722 C40.28365045 3.11247522 34.49578497 3.11463669 28.70789868 3.11311162 C26.60997296 3.11338395 24.51204666 3.11536888 22.41412443 3.1192044 C19.5702888 3.12416397 16.7265199 3.122992 13.8826828 3.12025452 C12.6513132 3.12462381 12.6513132 3.12462381 11.39506745 3.12908137 C7.15050978 3.11797608 3.18135454 2.84228705 -1 2 C-0.67 1.34 -0.34 0.68 0 0 Z " fill="#080908" transform="translate(241,662)"/>
<path d="M0 0 C2.77660581 2.77660581 2.45307335 5.47446458 2.61748409 9.20513153 C2.65511596 9.92276341 2.69274783 10.64039529 2.73152005 11.37977359 C3.07771482 18.49142064 3.13665231 25.59860222 3.12025452 32.71789551 C3.1206921 34.12176231 3.12157042 35.52562904 3.12284368 36.92949533 C3.12505203 40.73568687 3.12111834 44.54184961 3.11606562 48.34803748 C3.11170796 52.47185745 3.11321128 56.59567606 3.1139679 60.71949768 C3.11448979 67.84723794 3.11137811 74.97496897 3.10573006 82.10270691 C3.09756948 92.40795475 3.09499518 102.71319817 3.09374207 113.01844889 C3.09155868 129.74195673 3.084918 146.46545966 3.07543945 163.18896484 C3.06624684 179.4249672 3.05917507 195.66096822 3.05493164 211.89697266 C3.05466892 212.89938659 3.05440619 213.90180052 3.05413551 214.93459064 C3.05283038 219.96389249 3.05156669 224.99319435 3.05032361 230.02249622 C3.03997322 271.68166756 3.02237439 313.3408335 3 355 C0.67134385 353.21306586 0.04598271 352.32452758 -0.37259549 349.37037021 C-0.37145633 348.30221692 -0.37031717 347.23406363 -0.36914349 346.13354206 C-0.37511663 344.90141367 -0.38108978 343.66928528 -0.38724393 342.39981967 C-0.37868425 341.02519649 -0.36984745 339.65057502 -0.36076355 338.2759552 C-0.36207104 336.82143459 -0.36469642 335.36691466 -0.36853105 333.91239852 C-0.37525909 329.90573268 -0.36321167 325.89930609 -0.34819686 321.89267075 C-0.33527404 317.57570966 -0.33962329 313.2587627 -0.34190369 308.94178772 C-0.3434788 301.45910747 -0.33404473 293.97650554 -0.31719017 286.49384499 C-0.29283698 275.67510884 -0.28499868 264.85641066 -0.2812262 254.03765007 C-0.27465592 236.48609744 -0.25467916 218.93458658 -0.22631836 201.38305664 C-0.19879268 184.33064992 -0.17755181 167.27825452 -0.16479492 150.22583008 C-0.16400675 149.17519581 -0.16321858 148.12456153 -0.16240653 147.04208986 C-0.15849149 141.77150875 -0.15470035 136.50092756 -0.15097082 131.23034632 C-0.11985698 87.48686861 -0.06700553 43.74343646 0 0 Z " fill="#1A1918" transform="translate(807,286)"/>
<path d="M0 0 C1.02509853 3.38030963 1.11874022 6.4502689 1.10743046 9.9738884 C1.10519194 11.81984246 1.10519194 11.81984246 1.10290819 13.70308852 C1.09612592 15.07083795 1.08925004 16.43858691 1.08229065 17.80633545 C1.07859694 19.25759156 1.07534765 20.70884887 1.07250541 22.1601069 C1.06339515 26.15304513 1.04796386 30.14593802 1.03152263 34.13885188 C1.0149002 38.44283319 1.00410832 42.74682952 0.99261475 47.05082703 C0.97189586 54.50946089 0.94746815 61.96807524 0.92053413 69.42668915 C0.88159722 80.21064433 0.84823395 90.99461106 0.81623887 101.7785888 C0.76417951 119.27411849 0.70760128 136.76963055 0.64819336 154.26513672 C0.5904876 171.26220004 0.53490256 188.25926812 0.48217773 205.25634766 C0.47892802 206.30373221 0.4756783 207.35111676 0.4723301 208.43024024 C0.45604062 213.68456661 0.43979291 218.9388931 0.42356598 224.19321966 C0.28885504 267.79550153 0.14681552 311.39775732 0 355 C-0.66 354.67 -1.32 354.34 -2 354 C-2.91435518 348.70799196 -3.14450014 343.50899368 -3.12698364 338.14199829 C-3.12854363 337.39336749 -3.13010362 336.6447367 -3.13171089 335.87342012 C-3.13567056 333.38776081 -3.13255098 330.90216357 -3.12939453 328.41650391 C-3.13075074 326.62548792 -3.1325319 324.83447221 -3.13470459 323.04345703 C-3.13925083 318.19683662 -3.13750145 313.35023758 -3.1343255 308.50361681 C-3.13178974 303.43033828 -3.13414262 298.35706156 -3.13571167 293.28378296 C-3.13752881 284.77170483 -3.13513795 276.2596354 -3.13037109 267.74755859 C-3.12491886 257.89765881 -3.12669992 248.04777968 -3.1321975 238.19788039 C-3.1367291 229.74085584 -3.13737926 221.28383752 -3.13475883 212.82681215 C-3.13319766 207.77540331 -3.13299814 202.7240042 -3.13629532 197.67259598 C-3.13917505 192.93003109 -3.13719646 188.18749301 -3.13140106 183.44493103 C-3.13007447 181.70097778 -3.13046589 179.95702229 -3.13266373 178.21306992 C-3.13537888 175.84071569 -3.13198971 173.46844847 -3.12698364 171.09609985 C-3.12921436 170.3992299 -3.13144509 169.70235996 -3.13374341 168.98437274 C-3.11415081 164.22830162 -3.11415081 164.22830162 -2 162 C-2.66 161.67 -3.32 161.34 -4 161 C-3.67 160.67 -3.34 160.34 -3 160 C-2.90607789 158.36273378 -2.88256447 156.72138943 -2.88647461 155.08143616 C-2.88658035 153.48235413 -2.88658035 153.48235413 -2.88668823 151.85096741 C-2.89185455 150.6704631 -2.89702087 149.4899588 -2.90234375 148.27368164 C-2.90380402 147.03758148 -2.90526428 145.80148132 -2.9067688 144.52792358 C-2.91058864 141.82801935 -2.91622707 139.12818754 -2.92483521 136.42830086 C-2.93837774 132.13225159 -2.94425898 127.83621265 -2.94897461 123.54014587 C-2.9610358 113.61110475 -2.98283275 103.68208944 -3.00520325 93.75306702 C-3.02552724 84.71836323 -3.04360829 75.6836698 -3.05341816 66.64894766 C-3.05752057 63.09231008 -3.06368734 59.53570413 -3.07516479 55.97908211 C-3.13167188 38.29494811 -2.84775237 20.66581993 -2 3 C-1.34 3 -0.68 3 0 3 C0 2.01 0 1.02 0 0 Z " fill="#030302" transform="translate(217,282)"/>
<path d="M0 0 C0.33 0 0.66 0 1 0 C1 76.23 1 152.46 1 231 C0.34 231.33 -0.32 231.66 -1 232 C-1.86612792 220.64753762 -2.11858127 209.38380184 -2 198 C-2.33 198 -2.66 198 -3 198 C-3.09978121 194.50765756 -2.77842938 191.40562852 -2 188 C-2.33 188 -2.66 188 -3 188 C-3.12551895 181.5985337 -3.12551895 181.5985337 -2.50439453 178.63671875 C-1.94319144 175.70303367 -1.87045368 172.98621946 -1.8671875 170 C-1.86589844 168.865625 -1.86460937 167.73125 -1.86328125 166.5625 C-1.86714844 165.386875 -1.87101563 164.21125 -1.875 163 C-1.87113281 161.824375 -1.86726562 160.64875 -1.86328125 159.4375 C-1.86457031 158.303125 -1.86585938 157.16875 -1.8671875 156 C-1.86831543 154.96875 -1.86944336 153.9375 -1.87060547 152.875 C-1.92610421 149.99224589 -1.92610421 149.99224589 -2.57080078 147.1875 C-2.71243652 146.465625 -2.85407227 145.74375 -3 145 C-2.67 144.67 -2.34 144.34 -2 144 C-1.90176063 142.33570949 -1.87026369 140.66718069 -1.875 139 C-1.87242187 138.0925 -1.86984375 137.185 -1.8671875 136.25 C-1.74826221 134.03033389 -1.74826221 134.03033389 -3 133 C-3.125 130 -3.125 130 -3 127 C-2.505 126.505 -2.505 126.505 -2 126 C-2.2784375 124.8553125 -2.2784375 124.8553125 -2.5625 123.6875 C-3.06011758 120.63070629 -2.61585352 119.56635559 -1 117 C-1.66 117 -2.32 117 -3 117 C-2.7525 116.01 -2.7525 116.01 -2.5 115 C-2.08255397 112.49532384 -1.96285757 110.39139947 -2 107.875 C-2 104 -2 104 -1 101 C-1.66 101 -2.32 101 -3 101 C-2.814375 99.80375 -2.62875 98.6075 -2.4375 97.375 C-1.9692647 93.70715684 -2.2211259 90.63474578 -3 87 C-3 84 -3 81 -3 78 C-2.67 78 -2.34 78 -2 78 C-2.00222061 77.33014572 -2.00444122 76.66029144 -2.00672913 75.97013855 C-2.02881727 69.0112664 -2.04392142 62.05240418 -2.05493164 55.09350586 C-2.05996681 52.49486893 -2.0667953 49.89623485 -2.07543945 47.29760742 C-2.08754062 43.56688741 -2.09323641 39.83620478 -2.09765625 36.10546875 C-2.10281754 34.93976852 -2.10797882 33.7740683 -2.11329651 32.57304382 C-2.11337204 31.49214981 -2.11344757 30.4112558 -2.11352539 29.29760742 C-2.115746 28.34496506 -2.11796661 27.39232269 -2.12025452 26.41081238 C-2 24 -2 24 -1 21 C-1.66 20.67 -2.32 20.34 -3 20 C-2.34 20 -1.68 20 -1 20 C-1.33 19.484375 -1.66 18.96875 -2 18.4375 C-3.33034575 15.19478222 -3.19642371 12.47015228 -3 9 C-2.67 8.67 -2.34 8.34 -2 8 C-1.835 6.845 -1.67 5.69 -1.5 4.5 C-1 1 -1 1 0 0 Z M-2 10 C-1 12 -1 12 -1 12 Z M-2 13 C-1 16 -1 16 -1 16 Z M-2 114 C-1 116 -1 116 -1 116 Z M-2 182 C-1 184 -1 184 -1 184 Z M-2 193 C-1 196 -1 196 -1 196 Z " fill="#111211" transform="translate(771,360)"/>
<path d="M0 0 C0.33 0 0.66 0 1 0 C1 106.92 1 213.84 1 324 C0.67 324 0.34 324 0 324 C-0.33 318.39 -0.66 312.78 -1 307 C-1.66 307 -2.32 307 -3 307 C-2.67 308.65 -2.34 310.3 -2 312 C-2.66 311.67 -3.32 311.34 -4 311 C-4.15015974 301.99041534 -4.15015974 301.99041534 -3 299 C-2.34 298.34 -1.68 297.68 -1 297 C-0.80852335 294.0832783 -0.74406848 291.26205069 -0.76622009 288.34457397 C-0.76471517 286.98254347 -0.76471517 286.98254347 -0.76317984 285.59299719 C-0.7622221 282.52854679 -0.77560824 279.46432208 -0.78881836 276.39990234 C-0.79101898 274.20791188 -0.79232493 272.01592035 -0.7928009 269.82392883 C-0.79574522 265.08061196 -0.80503379 260.33736342 -0.81910515 255.59406662 C-0.84145688 248.023619 -0.84948108 240.45319661 -0.85560608 232.88272095 C-0.86572751 222.19393289 -0.88208434 211.505175 -0.90405273 200.81640625 C-0.90544605 200.13751188 -0.90683936 199.45861751 -0.9082749 198.75915058 C-0.91109427 197.38665905 -0.91391392 196.01416752 -0.91673386 194.64167599 C-0.91812832 193.96237591 -0.91952277 193.28307584 -0.92095947 192.58319092 C-0.9223548 191.90404751 -0.92375012 191.22490411 -0.92518773 190.5251806 C-0.96968489 168.68324906 -1.0004517 146.84128995 -1.02324343 124.99932575 C-1.0259768 122.4322295 -1.02887309 119.86513341 -1.03193235 117.29803753 C-1.07829366 78.18926621 -0.91505303 39.09914306 0 0 Z M-3 66 C-1 67 -1 67 -1 67 Z " fill="#292927" transform="translate(772,294)"/>
<path d="M0 0 C67.815 0.495 67.815 0.495 137 1 C131.7631826 6.2368174 119.07904753 4.11837494 111.8921051 4.13922119 C109.46971209 4.13864729 107.04738176 4.13226343 104.625 4.125 C103.76667572 4.12411377 102.90835144 4.12322754 102.02401733 4.12231445 C68.01532543 4.08269637 34.00475781 3.47640247 0 3 C0 2.01 0 1.02 0 0 Z " fill="#080808" transform="translate(440,728)"/>
<path d="M0 0 C1.23026413 0.00960754 2.46052826 0.01921509 3.72807312 0.02911377 C7.07459997 0.05628853 10.42101699 0.08819144 13.76747632 0.12226367 C17.27479649 0.1568335 20.78216651 0.18526587 24.28953552 0.21437073 C30.9191482 0.27030621 37.54869846 0.33169979 44.17824358 0.39509207 C51.73087187 0.46704236 59.28354986 0.53285054 66.83623803 0.59816253 C82.36151208 0.73255418 97.88670639 0.87459499 113.41186523 1.02172852 C113.08186523 1.68172852 112.75186523 2.34172852 112.41186523 3.02172852 C67.53186523 3.35172852 22.65186523 3.68172852 -23.58813477 4.02172852 C-22.92813477 3.03172852 -22.26813477 2.04172852 -21.58813477 1.02172852 C-14.4285662 -0.25814936 -7.25266895 -0.08194296 0 0 Z " fill="#040403" transform="translate(462.588134765625,700.978271484375)"/>
<path d="M0 0 C1.6063844 2.84127722 2.24903747 4.86768589 2.24050903 8.12554932 C2.24325836 8.93880676 2.24600769 9.75206421 2.24884033 10.58996582 C2.24164978 11.47325562 2.23445923 12.35654541 2.22705078 13.26660156 C2.22734283 14.20352844 2.22763489 15.14045532 2.22793579 16.10577393 C2.22654311 19.20081868 2.21098466 22.29562233 2.1953125 25.390625 C2.19158215 27.53725045 2.18873528 29.68387761 2.18673706 31.83050537 C2.17910232 37.47925521 2.15945511 43.12790214 2.1373291 48.77661133 C2.11686731 54.54116422 2.10773462 60.30573375 2.09765625 66.0703125 C2.07620914 77.38025354 2.04207503 88.69011821 2 100 C1.01 100.495 1.01 100.495 0 101 C-0.86612792 89.64753762 -1.11858127 78.38380184 -1 67 C-1.33 67 -1.66 67 -2 67 C-2.09978121 63.50765756 -1.77842938 60.40562852 -1 57 C-1.33 57 -1.66 57 -2 57 C-2.12551895 50.5985337 -2.12551895 50.5985337 -1.50439453 47.63671875 C-0.94319144 44.70303367 -0.87045368 41.98621946 -0.8671875 39 C-0.86589844 37.865625 -0.86460937 36.73125 -0.86328125 35.5625 C-0.86714844 34.386875 -0.87101563 33.21125 -0.875 32 C-0.87113281 30.824375 -0.86726562 29.64875 -0.86328125 28.4375 C-0.86457031 27.303125 -0.86585938 26.16875 -0.8671875 25 C-0.86831543 23.96875 -0.86944336 22.9375 -0.87060547 21.875 C-0.92610421 18.99224589 -0.92610421 18.99224589 -1.57080078 16.1875 C-1.78325439 15.1046875 -1.78325439 15.1046875 -2 14 C-1.67 13.67 -1.34 13.34 -1 13 C-0.76518307 10.81707226 -0.58636677 8.62796826 -0.4375 6.4375 C-0.35371094 5.23996094 -0.26992188 4.04242188 -0.18359375 2.80859375 C-0.12300781 1.88175781 -0.06242188 0.95492188 0 0 Z M-1 51 C0 53 0 53 0 53 Z M-1 62 C0 65 0 65 0 65 Z " fill="#101110" transform="translate(770,491)"/>
<path d="M0 0 C0.66 0.33 1.32 0.66 2 1 C2.04628524 9.44039195 2.08184969 17.88073111 2.10362434 26.32121849 C2.11407365 30.24023284 2.12825362 34.15916053 2.15087891 38.078125 C2.17256661 41.85823039 2.18455998 45.63825228 2.18975449 49.41841507 C2.19345759 50.86255839 2.2006886 52.306697 2.21146011 53.7508049 C2.22592017 55.76920894 2.22681645 57.78769652 2.22705078 59.80615234 C2.231492 60.95642914 2.23593323 62.10670593 2.24050903 63.2918396 C2 66 2 66 0 68 C-0.06058594 67.26394531 -0.12117187 66.52789062 -0.18359375 65.76953125 C-0.26738281 64.79371094 -0.35117187 63.81789063 -0.4375 62.8125 C-0.51871094 61.84957031 -0.59992187 60.88664062 -0.68359375 59.89453125 C-0.97666151 57.21350398 -1.42703754 54.6337014 -2 52 C-1.34 52 -0.68 52 0 52 C-0.03552979 51.41959961 -0.07105957 50.83919922 -0.10766602 50.24121094 C-1.08846462 33.42845618 -0.82691328 16.81577837 0 0 Z " fill="#0C0C0C" transform="translate(770,292)"/>
<path d="M0 0 C0.33 0 0.66 0 1 0 C1 16.5 1 33 1 50 C-0.32 49.34 -1.64 48.68 -3 48 C-3.04254356 46.00045254 -3.04080783 43.99958364 -3 42 C-2.505 41.505 -2.505 41.505 -2 41 C-2.185625 40.236875 -2.37125 39.47375 -2.5625 38.6875 C-3.06011758 35.63070629 -2.61585352 34.56635559 -1 32 C-1.66 32 -2.32 32 -3 32 C-2.835 31.34 -2.67 30.68 -2.5 30 C-2.08255397 27.49532384 -1.96285757 25.39139947 -2 22.875 C-2 19 -2 19 -1 16 C-1.66 16 -2.32 16 -3 16 C-2.814375 14.80375 -2.62875 13.6075 -2.4375 12.375 C-1.9688803 8.71716293 -2.18518987 5.62137834 -3 2 C-2.34 2 -1.68 2 -1 2 C-0.67 1.34 -0.34 0.68 0 0 Z M-2 29 C-1 31 -1 31 -1 31 Z " fill="#1B1B19" transform="translate(771,445)"/>
<path d="M0 0 C0.83071518 0.02361099 1.66143036 0.04722198 2.51731873 0.07154846 C5.13545751 0.14729549 7.7532313 0.23169437 10.37109375 0.31640625 C12.16079023 0.36971636 13.95050381 0.4224559 15.74023438 0.47460938 C20.09657933 0.60278792 24.45261937 0.73871909 28.80859375 0.87890625 C28.80859375 1.20890625 28.80859375 1.53890625 28.80859375 1.87890625 C22.31277338 2.18995915 15.816587 2.49222138 9.32006836 2.78833008 C7.1093618 2.89013786 4.89874749 2.99396937 2.68823242 3.09985352 C-0.48627084 3.25156301 -3.66103299 3.39602867 -6.8359375 3.5390625 C-8.32200249 3.61242577 -8.32200249 3.61242577 -9.83808899 3.68727112 C-10.75881699 3.72738815 -11.67954498 3.76750519 -12.62817383 3.80883789 C-13.43869705 3.84658829 -14.24922028 3.88433868 -15.08430481 3.92323303 C-17.19140625 3.87890625 -17.19140625 3.87890625 -20.19140625 2.87890625 C-15.57062974 -1.74187026 -6.17343279 -0.21267757 0 0 Z " fill="#080706" transform="translate(459.19140625,701.12109375)"/>
<path d="M0 0 C0.33 0 0.66 0 1 0 C1 9.9 1 19.8 1 30 C0.34 30.33 -0.32 30.66 -1 31 C-1.85110439 20.91768646 -2.36392334 11.07787802 -1 1 C-0.67 0.67 -0.34 0.34 0 0 Z " fill="#060706" transform="translate(771,561)"/>
<path d="M0 0 C1.13598633 0.00483398 1.13598633 0.00483398 2.29492188 0.00976562 C3.47344727 0.02233398 3.47344727 0.02233398 4.67578125 0.03515625 C5.47306641 0.03966797 6.27035156 0.04417969 7.09179688 0.04882812 C9.05732382 0.06059775 11.0228121 0.07853277 12.98828125 0.09765625 C12.98828125 0.42765625 12.98828125 0.75765625 12.98828125 1.09765625 C12.20066406 1.11183594 11.41304688 1.12601563 10.6015625 1.140625 C1.57978289 1.5356615 -7.90763254 3.06186716 -15.1953125 8.82421875 C-16.09443359 9.45457031 -16.09443359 9.45457031 -17.01171875 10.09765625 C-18.00171875 9.76765625 -18.99171875 9.43765625 -20.01171875 9.09765625 C-14.46377091 4.24320189 -7.55846453 -0.05683056 0 0 Z " fill="#1A1A19" transform="translate(251.01171875,249.90234375)"/>
<path d="M0 0 C2.375 0.6875 2.375 0.6875 5 2 C5.6803548 3.661126 6.34421158 5.32902311 7 7 C9.07006822 10.10714382 11.23643551 13.13046122 13.41796875 16.16015625 C15 19 15 19 14.73828125 21.37109375 C14.37283203 22.17740234 14.37283203 22.17740234 14 23 C13.57589844 22.32195313 13.15179687 21.64390625 12.71484375 20.9453125 C9.07091279 15.16307481 5.30810173 9.52211776 1.28515625 3.99609375 C0 2 0 2 0 0 Z " fill="#181816" transform="translate(814,647)"/>
<path d="M0 0 C0.33 0.99 0.66 1.98 1 3 C-0.48014637 5.55391989 -1.99324022 7.90781957 -3.6875 10.3125 C-4.13544922 10.96412109 -4.58339844 11.61574219 -5.04492188 12.28710938 C-5.9315394 13.57638289 -6.82194057 14.86306351 -7.71630859 16.14697266 C-9.51352165 18.74127603 -11.25787816 21.36845764 -13 24 C-13.65356445 22.25024414 -13.65356445 22.25024414 -14 20 C-13.04370117 18.03295898 -13.04370117 18.03295898 -11.54296875 15.99609375 C-11.00736328 15.25552734 -10.47175781 14.51496094 -9.91992188 13.75195312 C-9.34822266 12.98818359 -8.77652344 12.22441406 -8.1875 11.4375 C-7.62740234 10.66986328 -7.06730469 9.90222656 -6.49023438 9.11132812 C-5.44754021 7.68245094 -4.39949351 6.25745377 -3.34448242 4.83764648 C-2.18692556 3.25549095 -1.08743226 1.6311484 0 0 Z " fill="#191918" transform="translate(217,697)"/>
<path d="M0 0 C3.82516038 3.46766876 6.45754712 7.45579194 9.25 11.75 C9.70890625 12.44738281 10.1678125 13.14476562 10.640625 13.86328125 C11.76465406 15.57274211 12.88291224 17.28599512 14 19 C13.34 19.66 12.68 20.32 12 21 C9.98460086 18.26098681 7.99051709 15.50713516 6 12.75 C5.42765625 11.97269531 4.8553125 11.19539062 4.265625 10.39453125 C3.45351563 9.26337891 3.45351563 9.26337891 2.625 8.109375 C2.12226562 7.41811523 1.61953125 6.72685547 1.1015625 6.01464844 C0 4 0 4 0 0 Z " fill="#181716" transform="translate(793,678)"/>
<path d="M0 0 C6.45997556 2.84998922 10.26991 9.70669393 13 16 C13.125 19.25 13.125 19.25 13 22 C10.90345283 19.90345283 10.23938 18.45766711 9.125 15.75 C7.11170865 11.09473153 4.87123929 6.87123929 1.25 3.25 C0.8375 2.8375 0.425 2.425 0 2 C0 1.34 0 0.68 0 0 Z " fill="#151513" transform="translate(794,262)"/>
<path d="M0 0 C4.2707172 2.74546106 8.23029015 5.58931014 12 9 C12 9.66 12 10.32 12 11 C12.99 11.33 13.98 11.66 15 12 C15.6875 14.0625 15.6875 14.0625 16 16 C11.71357676 14.33536962 8.91382783 11.20924163 5.75 8 C5.19570313 7.4534375 4.64140625 6.906875 4.0703125 6.34375 C0 2.2533867 0 2.2533867 0 0 Z " fill="#1A1A18" transform="translate(625,386)"/>
<path d="M0 0 C1 3 1 3 0.19555664 4.7175293 C-0.22862549 5.33023682 -0.65280762 5.94294434 -1.08984375 6.57421875 C-1.54423828 7.24130859 -1.99863281 7.90839844 -2.46679688 8.59570312 C-2.95212891 9.28599609 -3.43746094 9.97628906 -3.9375 10.6875 C-4.41896484 11.38939453 -4.90042969 12.09128906 -5.39648438 12.81445312 C-6.58846676 14.54931858 -7.79306473 16.27550373 -9 18 C-9.33 17.01 -9.66 16.02 -10 15 C-8.62253667 12.50884291 -7.21730643 10.22080859 -5.625 7.875 C-5.19960937 7.22917969 -4.77421875 6.58335937 -4.3359375 5.91796875 C-1.23083269 1.23083269 -1.23083269 1.23083269 0 0 Z " fill="#191817" transform="translate(239,665)"/>
<path d="M0 0 C3.96 0 7.92 0 12 0 C12 0.66 12 1.32 12 2 C11.12988281 2.12955078 11.12988281 2.12955078 10.2421875 2.26171875 C4.41168056 3.3104403 1.24345436 4.86535216 -3 9 C-3.66 8.67 -4.32 8.34 -5 8 C-3.046875 5.75390625 -3.046875 5.75390625 -1.09375 3.5078125 C0.19572458 2.04063579 0.19572458 2.04063579 0 0 Z " fill="#171715" transform="translate(406,376)"/>
<path d="M0 0 C2.93447357 2.93447357 2.46158423 6.18259456 2.625 10.125 C2.66367187 10.87910156 2.70234375 11.63320313 2.7421875 12.41015625 C2.83651031 14.27303184 2.91934662 16.13648255 3 18 C2.01 18 1.02 18 0 18 C0 12.06 0 6.12 0 0 Z " fill="#11100F" transform="translate(807,286)"/>
<path d="M0 0 C0.66 0.33 1.32 0.66 2 1 C-1.49937606 5.26010999 -5.8576271 7.29475717 -11 9 C-14.5625 9.25 -14.5625 9.25 -17 9 C-13.61861957 6.74574638 -10.26310117 5.50978279 -6.47265625 4.09765625 C-3.99574811 2.99811251 -2.09462163 1.70582875 0 0 Z " fill="#161614" transform="translate(843,766)"/>
<path d="M0 0 C0.99 0.33 1.98 0.66 3 1 C1.8553125 2.5159375 1.8553125 2.5159375 0.6875 4.0625 C-1.82339915 7.55778575 -3.44721275 10.9954434 -5 15 C-5.66 14.34 -6.32 13.68 -7 13 C-2.96127563 3.40546697 -2.96127563 3.40546697 0 0 Z " fill="#171715" transform="translate(597,501)"/>
<path d="M0 0 C0.66 0 1.32 0 2 0 C1.39363767 5.76044212 -0.75658279 10.72014369 -3 16 C-3.33 16 -3.66 16 -4 16 C-3.67 12.04 -3.34 8.08 -3 4 C-2.34 4 -1.68 4 -1 4 C-0.67 2.68 -0.34 1.36 0 0 Z " fill="#181817" transform="translate(487,467)"/>
<path d="M0 0 C4.5851353 2.05470743 7.84127764 5.1264089 11 9 C11.9375 11.9375 11.9375 11.9375 12 14 C8.41348144 11.31011108 5.75779302 8.5185635 3 5 C2.34 4.67 1.68 4.34 1 4 C0.375 1.9375 0.375 1.9375 0 0 Z " fill="#171715" transform="translate(597,404)"/>
<path d="M0 0 C0.99 0 1.98 0 3 0 C2.53680089 4.72463088 1.90108294 8.17057052 -1 12 C-1.66 12 -2.32 12 -3 12 C-2.01 8.04 -1.02 4.08 0 0 Z " fill="#181817" transform="translate(491,551)"/>
<path d="M0 0 C0.99 0.33 1.98 0.66 3 1 C0.03 5.29 -2.94 9.58 -6 14 C-7 10 -7 10 -5.56640625 7.421875 C-4.90511719 6.54015625 -4.24382812 5.6584375 -3.5625 4.75 C-2.90378906 3.85796875 -2.24507812 2.9659375 -1.56640625 2.046875 C-1.04949219 1.37140625 -0.53257812 0.6959375 0 0 Z " fill="#161614" transform="translate(187,677)"/>
<path d="M0 0 C0.99 0.33 1.98 0.66 3 1 C2.0409375 2.485 2.0409375 2.485 1.0625 4 C-1.25406326 8.00282486 -1.67854105 11.41921002 -2 16 C-4 14 -4 14 -4.375 10.8125 C-3.91484377 6.13424503 -2.54430059 3.89596028 0 0 Z " fill="#121211" transform="translate(595,381)"/>
<path d="M0 0 C3.34072178 1.38779449 4.90199421 2.81588196 6.8125 5.875 C7.25207031 6.55304687 7.69164062 7.23109375 8.14453125 7.9296875 C9.16843185 10.40762047 8.90457722 11.52489914 8 14 C6.66101601 12.04532248 5.32870953 10.0866421 4 8.125 C3.2575 7.03445313 2.515 5.94390625 1.75 4.8203125 C0 2 0 2 0 0 Z " fill="#171716" transform="translate(836,680)"/>
<path d="M0 0 C1.77128064 2.30266483 3.41000773 4.62782434 5 7.0625 C6.56063697 9.35468555 7.957621 11.1618589 10 13 C7.23620802 12.92103451 5.53412211 12.53556568 3.5546875 10.55078125 C1.35650816 7.65546504 0.07733225 5.72692318 -0.3125 2.0625 C-0.209375 1.381875 -0.10625 0.70125 0 0 Z " fill="#171615" transform="translate(592,518)"/>
<path d="M0 0 C0.33 0 0.66 0 1 0 C0.50341703 5.66104589 -0.54510684 9.87674471 -3 15 C-3.66 15 -4.32 15 -5 15 C-1.92482916 4.44191344 -1.92482916 4.44191344 0 0 Z " fill="#131312" transform="translate(509,503)"/>
<path d="M0 0 C0.66 0.33 1.32 0.66 2 1 C1.67 1.66 1.34 2.32 1 3 C-3.29 3 -7.58 3 -12 3 C-8.62835657 -2.05746515 -5.52101165 -1.0038203 0 0 Z " fill="#161514" transform="translate(613,376)"/>
<path d="M0 0 C0 0.99 0 1.98 0 3 C-4.62 3.33 -9.24 3.66 -14 4 C-12 1 -12 1 -9.94140625 0.48828125 C-8.76384766 0.40126953 -8.76384766 0.40126953 -7.5625 0.3125 C-6.78003906 0.24675781 -5.99757813 0.18101562 -5.19140625 0.11328125 C-3.46283358 0.02392544 -1.73088068 0 0 0 Z " fill="#11100F" transform="translate(453,701)"/>
<path d="M0 0 C0.66 0.33 1.32 0.66 2 1 C0.88096454 2.81618856 -0.24541284 4.62785526 -1.375 6.4375 C-2.00148437 7.44683594 -2.62796875 8.45617187 -3.2734375 9.49609375 C-5 12 -5 12 -7 13 C-6.65986985 7.55791766 -3.29703472 4.06331802 0 0 Z " fill="#131312" transform="translate(206,650)"/>
<path d="M0 0 C0.33 3.3 0.66 6.6 1 10 C0.01 10.33 -0.98 10.66 -2 11 C-3.60725635 7.78548731 -3.05748185 4.56387464 -3 1 C-1 0 -1 0 0 0 Z " fill="#181817" transform="translate(463,549)"/>
<path d="M0 0 C2.23551759 3.35327639 2.17283528 3.90743657 1.625 7.6875 C1.51414062 8.49574219 1.40328125 9.30398438 1.2890625 10.13671875 C1.19367188 10.75160156 1.09828125 11.36648438 1 12 C0.01 11.34 -0.98 10.68 -2 10 C-2.36328125 8.125 -2.36328125 8.125 -2.3125 6 C-2.30669922 4.948125 -2.30669922 4.948125 -2.30078125 3.875 C-2 2 -2 2 0 0 Z " fill="#262623" transform="translate(432,510)"/>
<path d="M0 0 C3 0 3 0 5.6875 2.5625 C8.39417226 5.95799604 8.43127405 8.68725946 8 13 C7.73445313 12.41476562 7.46890625 11.82953125 7.1953125 11.2265625 C5.6090019 8.2716702 3.49184125 6.05086912 1.2421875 3.5859375 C0 2 0 2 0 0 Z " fill="#131312" transform="translate(424,501)"/>
<path d="M0 0 C0.66 0.33 1.32 0.66 2 1 C-2.19882375 3.79921583 -4.12127113 2.86558093 -9 2 C-9.33 1.67 -9.66 1.34 -10 1 C-11.32594105 0.63837971 -12.65938457 0.30271961 -14 0 C-9.20863728 -1.59712091 -4.74150731 -1.58050244 0 0 Z " fill="#2D2D2A" transform="translate(549,342)"/>
<path d="M0 0 C0 3.63195496 -0.95453155 4.74713911 -3 7.6875 C-3.556875 8.49574219 -4.11375 9.30398438 -4.6875 10.13671875 C-5.120625 10.75160156 -5.55375 11.36648438 -6 12 C-6.64453125 10.23046875 -6.64453125 10.23046875 -7 8 C-6.07421875 6.11328125 -6.07421875 6.11328125 -4.6875 4.3125 C-4.23761719 3.71050781 -3.78773438 3.10851562 -3.32421875 2.48828125 C-2 1 -2 1 0 0 Z " fill="#141413" transform="translate(175,697)"/>
<path d="M0 0 C0.33 0 0.66 0 1 0 C1.33 2.97 1.66 5.94 2 9 C1.34 9 0.68 9 0 9 C-0.33 9.66 -0.66 10.32 -1 11 C-3.09230769 6.56923077 -3.09230769 6.56923077 -2.625 3.6875 C-2.41875 3.130625 -2.2125 2.57375 -2 2 C-1.67 2.66 -1.34 3.32 -1 4 C-0.67 2.68 -0.34 1.36 0 0 Z " fill="#2A2928" transform="translate(433,713)"/>
<path d="M0 0 C-1.58074564 0.81752303 -3.16471223 1.62881997 -4.75 2.4375 C-5.63171875 2.88996094 -6.5134375 3.34242188 -7.421875 3.80859375 C-9.64198566 4.83455398 -11.61444619 5.51508603 -14 6 C-9.97780608 1.50460679 -6.20919335 -2.06973112 0 0 Z " fill="#131312" transform="translate(245,254)"/>
<path d="M0 0 C-0.33 0.66 -0.66 1.32 -1 2 C-5.28769786 3.29930238 -9.56510345 3.07516774 -14 3 C-14 2.67 -14 2.34 -14 2 C-12.04396149 1.47061343 -10.08507711 0.95173199 -8.125 0.4375 C-7.03445313 0.14746094 -5.94390625 -0.14257812 -4.8203125 -0.44140625 C-2 -1 -2 -1 0 0 Z " fill="#272725" transform="translate(584,729)"/>
<path d="M0 0 C2.96404505 2.80804268 5.44499019 5.18315774 7 9 C6.34 9.66 5.68 10.32 5 11 C4.15841464 9.73461631 3.32700252 8.46246221 2.5 7.1875 C1.80390625 6.12595703 1.80390625 6.12595703 1.09375 5.04296875 C0 3 0 3 0 0 Z " fill="#181816" transform="translate(786,668)"/>
<path d="M0 0 C0.66 0 1.32 0 2 0 C2.66 1.65 3.32 3.3 4 5 C1.69 6.98 -0.62 8.96 -3 11 C-3.66 10.67 -4.32 10.34 -5 10 C-4.175 9.278125 -3.35 8.55625 -2.5 7.8125 C0.24407806 5.27082634 0.24407806 5.27082634 0.3125 2.1875 C0.209375 1.465625 0.10625 0.74375 0 0 Z " fill="#0C0C0B" transform="translate(644,451)"/>
<path d="M0 0 C0 3.39593478 -0.52165948 4.06619881 -2.5 6.6875 C-2.9640625 7.31011719 -3.428125 7.93273437 -3.90625 8.57421875 C-4.2671875 9.04472656 -4.628125 9.51523437 -5 10 C-5.33 9.01 -5.66 8.02 -6 7 C-2.73239437 1.36619718 -2.73239437 1.36619718 0 0 Z " fill="#141413" transform="translate(196,666)"/>
<path d="M0 0 C1 3 1 3 -0.1875 5.625 C-2 8 -2 8 -4.1875 8.8125 C-4.785625 8.874375 -5.38375 8.93625 -6 9 C-2.25 2.25 -2.25 2.25 0 0 Z " fill="#171716" transform="translate(771,615)"/>
<path d="M0 0 C0.66 0 1.32 0 2 0 C1.5359375 1.2375 1.5359375 1.2375 1.0625 2.5 C-0.11877583 6.39126155 -0.58224168 9.96166953 -1 14 C-1.33 14 -1.66 14 -2 14 C-2.05410687 12.22950311 -2.09284119 10.45853151 -2.125 8.6875 C-2.14820313 7.70136719 -2.17140625 6.71523438 -2.1953125 5.69921875 C-2 3 -2 3 0 0 Z " fill="#0B0B0B" transform="translate(339,445)"/>
<path d="M0 0 C0.33 0 0.66 0 1 0 C0.125 7.625 0.125 7.625 -1 11 C-1.66 11 -2.32 11 -3 11 C-2.53199289 6.94393835 -2.12046792 3.53411321 0 0 Z " fill="#161615" transform="translate(546,394)"/>
<path d="M0 0 C3.72114571 2.31537955 6.61229661 4.28579473 9 8 C6 8 6 8 4.39453125 6.7578125 C3.87246094 6.21898437 3.35039063 5.68015625 2.8125 5.125 C2.28269531 4.59132813 1.75289062 4.05765625 1.20703125 3.5078125 C0 2 0 2 0 0 Z " fill="#11100E" transform="translate(625,386)"/>
<path d="M0 0 C0.33 0 0.66 0 1 0 C0.125 7.625 0.125 7.625 -1 11 C-1.66 11 -2.32 11 -3 11 C-2.44894091 7.0507432 -1.61064629 3.65079826 0 0 Z " fill="#131311" transform="translate(553,373)"/>
<path d="M0 0 C1.13643966 3.40931897 0.86747764 4.00335456 -0.4375 7.1875 C-0.86869141 8.26064453 -0.86869141 8.26064453 -1.30859375 9.35546875 C-1.53675781 9.89816406 -1.76492188 10.44085938 -2 11 C-2.33 11 -2.66 11 -3 11 C-2.88590407 9.54077307 -2.75834456 8.08259402 -2.625 6.625 C-2.55539062 5.81289063 -2.48578125 5.00078125 -2.4140625 4.1640625 C-2 2 -2 2 0 0 Z " fill="#141413" transform="translate(512,395)"/>
<path d="M0 0 C0.33 0 0.66 0 1 0 C2.953125 5.859375 2.953125 5.859375 3 8 C1.68 9.32 0.36 10.64 -1 12 C-0.67 8.04 -0.34 4.08 0 0 Z " fill="#2E2E2C" transform="translate(214,630)"/>
<path d="M0 0 C0 0.99 0 1.98 0 3 C-2.5 4.6875 -2.5 4.6875 -5 6 C-5.33 5.34 -5.66 4.68 -6 4 C-4 1 -4 1 -1.875 0.3125 C-1.25625 0.209375 -0.6375 0.10625 0 0 Z " fill="#191817" transform="translate(626,475)"/>
<path d="M0 0 C0.99 0.33 1.98 0.66 3 1 C0.03 3.475 0.03 3.475 -3 6 C-3 5.34 -3 4.68 -3 4 C-3.66 3.67 -4.32 3.34 -5 3 C-2.6875 1.4375 -2.6875 1.4375 0 0 Z " fill="#282825" transform="translate(402,428)"/>
<path d="M0 0 C2.46800047 1.15173355 4.04783565 2.04783565 6 4 C6.125 6.625 6.125 6.625 6 9 C3.59927045 6.11912454 1.52708963 3.43595166 0 0 Z " fill="#141412" transform="translate(426,380)"/>
<path d="M0 0 C0.66 0.33 1.32 0.66 2 1 C0.35 2.65 -1.3 4.3 -3 6 C-3.99 5.67 -4.98 5.34 -6 5 C-5.195625 4.360625 -4.39125 3.72125 -3.5625 3.0625 C-1.7249496 1.59396498 -1.7249496 1.59396498 0 0 Z " fill="#282826" transform="translate(438,703)"/>
<path d="M0 0 C0.66 0.33 1.32 0.66 2 1 C1.0479279 2.00596297 0.08812654 3.00461563 -0.875 4 C-1.40867187 4.556875 -1.94234375 5.11375 -2.4921875 5.6875 C-4 7 -4 7 -6 7 C-5.8125 5.1875 -5.8125 5.1875 -5 3 C-2.5625 1.1875 -2.5625 1.1875 0 0 Z " fill="#171716" transform="translate(348,437)"/>
<path d="M0 0 C1.98 0.495 1.98 0.495 4 1 C3.09456151 3.71631546 2.07525194 6.34771188 1 9 C0.34 8.01 -0.32 7.02 -1 6 C-0.67 5.01 -0.34 4.02 0 3 C0 2.01 0 1.02 0 0 Z " fill="#343330" transform="translate(161,741)"/>
<path d="M0 0 C3 1 3 1 5 4 C4.625 6.1875 4.625 6.1875 4 8 C0 2.25 0 2.25 0 0 Z " fill="#171716" transform="translate(853,705)"/>
<path d="M0 0 C1.5625 1.25 1.5625 1.25 3 3 C2.6875 5.1875 2.6875 5.1875 2 7 C0.68 7.33 -0.64 7.66 -2 8 C-1.34 5.36 -0.68 2.72 0 0 Z " fill="#2D2C2B" transform="translate(480,486)"/>
<path d="M0 0 C0.99 0.33 1.98 0.66 3 1 C0.36 2.98 -2.28 4.96 -5 7 C-4 3 -4 3 -2.125 1.1875 C-1.42375 0.795625 -0.7225 0.40375 0 0 Z " fill="#171715" transform="translate(380,404)"/>
<path d="M0 0 C2.86724686 0.57344937 3.8614515 0.8614515 6 3 C6 3.66 6 4.32 6 5 C6.33 5.66 6.66 6.32 7 7 C4.53199953 5.84826645 2.95216435 4.95216435 1 3 C1.33 2.34 1.66 1.68 2 1 C1.34 0.67 0.68 0.34 0 0 Z " fill="#2D2C2A" transform="translate(613,376)"/>
<path d="M0 0 C2.97 0.495 2.97 0.495 6 1 C5.67 1.99 5.34 2.98 5 4 C2.69 3.67 0.38 3.34 -2 3 C-1.34 2.01 -0.68 1.02 0 0 Z " fill="#151513" transform="translate(577,701)"/>
<path d="M0 0 C0.33 0 0.66 0 1 0 C0.67 2.97 0.34 5.94 0 9 C-0.66 9 -1.32 9 -2 9 C-1.125 2.25 -1.125 2.25 0 0 Z " fill="#141413" transform="translate(501,526)"/>
<path d="M0 0 C1.98 1.65 3.96 3.3 6 5 C5.01 5.495 5.01 5.495 4 6 C3.67 6.66 3.34 7.32 3 8 C1 5 1 5 1 3 C0.67 2.01 0.34 1.02 0 0 Z " fill="#282725" transform="translate(387,509)"/>
<path d="M0 0 C0.33 0.99 0.66 1.98 1 3 C-0.65 4.32 -2.3 5.64 -4 7 C-4.66 6.67 -5.32 6.34 -6 6 C-4.02 4.02 -2.04 2.04 0 0 Z " fill="#161514" transform="translate(651,496)"/>
<path d="M0 0 C0 3 0 3 -1.375 4.6875 C-3 6 -3 6 -5 6 C-4.1875 3.5625 -4.1875 3.5625 -3 1 C-2.01 0.67 -1.02 0.34 0 0 Z " fill="#151513" transform="translate(609,491)"/>
<path d="M0 0 C0.33 0 0.66 0 1 0 C1 4.95 1 9.9 1 15 C0.67 15 0.34 15 0 15 C0 10.05 0 5.1 0 0 Z " fill="#45433F" transform="translate(768,577)"/>
<path d="M0 0 C0.33 0 0.66 0 1 0 C1 2.97 1 5.94 1 9 C0.67 9 0.34 9 0 9 C0 6.03 0 3.06 0 0 Z " fill="#45433F" transform="translate(768,423)"/>
<path d="M0 0 C0.33 0 0.66 0 1 0 C1 2.31 1 4.62 1 7 C0.67 7 0.34 7 0 7 C0 4.69 0 2.38 0 0 Z " fill="#44423F" transform="translate(768,569)"/>
<path d="M0 0 C0.33 0 0.66 0 1 0 C1 2.31 1 4.62 1 7 C0.67 7 0.34 7 0 7 C0 4.69 0 2.38 0 0 Z " fill="#464440" transform="translate(768,497)"/>
<path d="M0 0 C0.99 0.495 0.99 0.495 2 1 C2 1.66 2 2.32 2 3 C1.34 3 0.68 3 0 3 C0 2.01 0 1.02 0 0 Z " fill="#42403C" transform="translate(456,553)"/>
<path d="M0 0 C0.66 0.66 1.32 1.32 2 2 C0.68 1.67 -0.64 1.34 -2 1 C-1.34 0.67 -0.68 0.34 0 0 Z " fill="#44423D" transform="translate(394,522)"/>
<path d="M0 0 C1.32 0.33 2.64 0.66 4 1 C3.01 1.33 2.02 1.66 1 2 C0.67 1.34 0.34 0.68 0 0 Z " fill="#44423D" transform="translate(376,507)"/>
<path d="M0 0 C0.99 0.495 0.99 0.495 2 1 C1.01 2.485 1.01 2.485 0 4 C0 2.68 0 1.36 0 0 Z " fill="#403F3C" transform="translate(496,432)"/>
<path d="M0 0 C0.99 0.33 1.98 0.66 3 1 C2.01 1.33 1.02 1.66 0 2 C0 1.34 0 0.68 0 0 Z " fill="#41403B" transform="translate(384,394)"/>
<path d="M0 0 C4 1 4 1 4 1 Z " fill="#43413E" transform="translate(489,734)"/>
<path d="M0 0 C0.99 0.495 0.99 0.495 2 1 C1.34 1.66 0.68 2.32 0 3 C0 2.01 0 1.02 0 0 Z " fill="#43403D" transform="translate(176,689)"/>
<path d="M0 0 C1 4 1 4 1 4 Z " fill="#464440" transform="translate(768,561)"/>
<path d="M0 0 C1 4 1 4 1 4 Z " fill="#444340" transform="translate(768,465)"/>
<path d="M0 0 C0.66 0.33 1.32 0.66 2 1 C1.01 1 0.02 1 -1 1 C-0.67 0.67 -0.34 0.34 0 0 Z " fill="#403E3A" transform="translate(640,455)"/>
<path d="M0 0 C3 1 3 1 3 1 Z " fill="#413F3C" transform="translate(541,700)"/>
<path d="M0 0 C0.33 0.66 0.66 1.32 1 2 C0.34 1.67 -0.32 1.34 -1 1 C-0.67 0.67 -0.34 0.34 0 0 Z " fill="#3F3E3A" transform="translate(787,674)"/>
<path d="" fill="#44413F" transform="translate(0,0)"/>
<path d="" fill="#413D3C" transform="translate(0,0)"/>
<path d="M0 0 C0.33 0.66 0.66 1.32 1 2 C0.34 1.67 -0.32 1.34 -1 1 C-0.67 0.67 -0.34 0.34 0 0 Z " fill="#42403C" transform="translate(466,522)"/>
<path d="M0 0 C0.66 0.66 1.32 1.32 2 2 C1.34 2 0.68 2 0 2 C0 1.34 0 0.68 0 0 Z " fill="#45433E" transform="translate(392,520)"/>
<path d="" fill="#403E3B" transform="translate(0,0)"/>
<path d="M0 0 C0.99 0.495 0.99 0.495 2 1 C1.01 1.495 1.01 1.495 0 2 C0 1.34 0 0.68 0 0 Z " fill="#41403C" transform="translate(496,426)"/>
<path d="" fill="#413F3B" transform="translate(0,0)"/>
<path d="" fill="#3F3E3A" transform="translate(0,0)"/>
<path d="M0 0 C0.66 0 1.32 0 2 0 C1.67 0.66 1.34 1.32 1 2 C0.67 1.34 0.34 0.68 0 0 Z " fill="#43413D" transform="translate(400,379)"/>
<path d="M0 0 C3 1 3 1 3 1 Z " fill="#3E3C38" transform="translate(244,249)"/>
<path d="" fill="#44433F" transform="translate(0,0)"/>
<path d="M0 0 C2 1 2 1 2 1 Z " fill="#44433F" transform="translate(547,734)"/>
<path d="M0 0 C2 1 2 1 2 1 Z " fill="#43423E" transform="translate(531,734)"/>
<path d="M0 0 C2 1 2 1 2 1 Z " fill="#44423E" transform="translate(499,734)"/>
<path d="" fill="#43423E" transform="translate(0,0)"/>
<path d="M0 0 C2 1 2 1 2 1 Z " fill="#43423E" transform="translate(467,734)"/>
<path d="" fill="#403F3B" transform="translate(0,0)"/>
<path d="" fill="#3F3D3A" transform="translate(0,0)"/>
<path d="" fill="#3E3D38" transform="translate(0,0)"/>
<path d="M0 0 C2 1 2 1 2 1 Z " fill="#44423E" transform="translate(536,699)"/>
<path d="" fill="#3F3D39" transform="translate(0,0)"/>
<path d="" fill="#41403C" transform="translate(0,0)"/>
<path d="" fill="#3F3D3A" transform="translate(0,0)"/>
<path d="M0 0 C2 1 2 1 2 1 Z " fill="#413F3A" transform="translate(486,567)"/>
<path d="" fill="#413F3C" transform="translate(0,0)"/>
<path d="" fill="#423E3B" transform="translate(0,0)"/>
<path d="M0 0 C2 1 2 1 2 1 Z " fill="#40403A" transform="translate(457,548)"/>
<path d="" fill="#464442" transform="translate(0,0)"/>
<path d="M0 0 C2 1 2 1 2 1 Z " fill="#44423E" transform="translate(608,535)"/>
<path d="M0 0 C2 1 2 1 2 1 Z " fill="#47443F" transform="translate(600,533)"/>
<path d="M0 0 C2 1 2 1 2 1 Z " fill="#42423D" transform="translate(212,529)"/>
<path d="" fill="#474540" transform="translate(0,0)"/>
<path d="" fill="#42413D" transform="translate(0,0)"/>
<path d="" fill="#41403B" transform="translate(0,0)"/>
<path d="" fill="#43413B" transform="translate(0,0)"/>
<path d="" fill="#44433F" transform="translate(0,0)"/>
<path d="" fill="#45423E" transform="translate(0,0)"/>
<path d="M0 0 C2 1 2 1 2 1 Z " fill="#42423F" transform="translate(607,488)"/>
<path d="" fill="#43403F" transform="translate(0,0)"/>
<path d="M0 0 C2 1 2 1 2 1 Z " fill="#44433D" transform="translate(346,475)"/>
<path d="" fill="#44403F" transform="translate(0,0)"/>
<path d="M0 0 C2 1 2 1 2 1 Z " fill="#3F3E3A" transform="translate(631,464)"/>
<path d="M0 0 C2 1 2 1 2 1 Z " fill="#403E39" transform="translate(633,456)"/>
<path d="" fill="#403F3A" transform="translate(0,0)"/>
<path d="" fill="#403E3A" transform="translate(0,0)"/>
<path d="M0 0 C2 1 2 1 2 1 Z " fill="#45423D" transform="translate(336,440)"/>
<path d="" fill="#44423C" transform="translate(0,0)"/>
<path d="M0 0 C2 1 2 1 2 1 Z " fill="#44423E" transform="translate(212,435)"/>
<path d="M0 0 C2 1 2 1 2 1 Z " fill="#44423E" transform="translate(212,433)"/>
<path d="" fill="#45433F" transform="translate(0,0)"/>
<path d="" fill="#45443E" transform="translate(0,0)"/>
<path d="" fill="#45423C" transform="translate(0,0)"/>
<path d="" fill="#474641" transform="translate(0,0)"/>
<path d="" fill="#42413D" transform="translate(0,0)"/>
<path d="" fill="#413F3C" transform="translate(0,0)"/>
<path d="" fill="#41403B" transform="translate(0,0)"/>
<path d="" fill="#413E3C" transform="translate(0,0)"/>
<path d="" fill="#403E3C" transform="translate(0,0)"/>
<path d="" fill="#413F3B" transform="translate(0,0)"/>
<path d="M0 0 C2 1 2 1 2 1 Z " fill="#433F3C" transform="translate(224,259)"/>
<path d="" fill="#3D3D3A" transform="translate(0,0)"/>
<path d="M0 0 C2 1 2 1 2 1 Z " fill="#403E3B" transform="translate(241,250)"/>
<path d="" fill="#444138" transform="translate(0,0)"/>
<path d="" fill="#46433A" transform="translate(0,0)"/>
<path d="" fill="#47443D" transform="translate(0,0)"/>
<path d="" fill="#47453E" transform="translate(0,0)"/>
<path d="" fill="#48453C" transform="translate(0,0)"/>
<path d="" fill="#46453D" transform="translate(0,0)"/>
<path d="" fill="#403F3B" transform="translate(0,0)"/>
<path d="" fill="#41413C" transform="translate(0,0)"/>
<path d="" fill="#45423C" transform="translate(0,0)"/>
<path d="" fill="#45403D" transform="translate(0,0)"/>
<path d="" fill="#41403C" transform="translate(0,0)"/>
<path d="" fill="#423E39" transform="translate(0,0)"/>
<path d="" fill="#413F3B" transform="translate(0,0)"/>
<path d="" fill="#41403C" transform="translate(0,0)"/>
<path d="" fill="#423E3C" transform="translate(0,0)"/>
<path d="" fill="#42423E" transform="translate(0,0)"/>
<path d="" fill="#3F403B" transform="translate(0,0)"/>
<path d="" fill="#42423D" transform="translate(0,0)"/>
<path d="" fill="#43413B" transform="translate(0,0)"/>
<path d="" fill="#403D3A" transform="translate(0,0)"/>
<path d="" fill="#43423F" transform="translate(0,0)"/>
<path d="" fill="#41413D" transform="translate(0,0)"/>
<path d="" fill="#44433E" transform="translate(0,0)"/>
<path d="" fill="#43413E" transform="translate(0,0)"/>
<path d="" fill="#44423E" transform="translate(0,0)"/>
<path d="" fill="#45423F" transform="translate(0,0)"/>
<path d="" fill="#43423E" transform="translate(0,0)"/>
<path d="" fill="#42413F" transform="translate(0,0)"/>
<path d="" fill="#44433F" transform="translate(0,0)"/>
<path d="" fill="#44423F" transform="translate(0,0)"/>
<path d="" fill="#43423C" transform="translate(0,0)"/>
<path d="" fill="#3C3C36" transform="translate(0,0)"/>
<path d="" fill="#42413C" transform="translate(0,0)"/>
<path d="" fill="#42403D" transform="translate(0,0)"/>
<path d="" fill="#42413C" transform="translate(0,0)"/>
<path d="" fill="#42403D" transform="translate(0,0)"/>
<path d="" fill="#43413E" transform="translate(0,0)"/>
<path d="" fill="#42413E" transform="translate(0,0)"/>
<path d="" fill="#3F3E39" transform="translate(0,0)"/>
<path d="" fill="#3F3F3B" transform="translate(0,0)"/>
<path d="" fill="#3F3D39" transform="translate(0,0)"/>
<path d="" fill="#3C3937" transform="translate(0,0)"/>
<path d="" fill="#3D3C37" transform="translate(0,0)"/>
<path d="" fill="#3D3B37" transform="translate(0,0)"/>
<path d="" fill="#3F3E3A" transform="translate(0,0)"/>
<path d="" fill="#3F3D3A" transform="translate(0,0)"/>
<path d="" fill="#3C3C38" transform="translate(0,0)"/>
<path d="" fill="#44423E" transform="translate(0,0)"/>
<path d="" fill="#403E3B" transform="translate(0,0)"/>
<path d="" fill="#41403B" transform="translate(0,0)"/>
<path d="" fill="#403B3A" transform="translate(0,0)"/>
<path d="" fill="#42403D" transform="translate(0,0)"/>
<path d="" fill="#403F3C" transform="translate(0,0)"/>
<path d="" fill="#3F3E3B" transform="translate(0,0)"/>
<path d="" fill="#43413D" transform="translate(0,0)"/>
<path d="" fill="#3E3D39" transform="translate(0,0)"/>
<path d="" fill="#42413D" transform="translate(0,0)"/>
<path d="" fill="#41403C" transform="translate(0,0)"/>
<path d="" fill="#3F3F39" transform="translate(0,0)"/>
<path d="" fill="#40403C" transform="translate(0,0)"/>
<path d="" fill="#403E3D" transform="translate(0,0)"/>
<path d="" fill="#413F3C" transform="translate(0,0)"/>
<path d="" fill="#40403B" transform="translate(0,0)"/>
<path d="" fill="#42413C" transform="translate(0,0)"/>
<path d="" fill="#423E3A" transform="translate(0,0)"/>
<path d="" fill="#423F3B" transform="translate(0,0)"/>
<path d="" fill="#41403C" transform="translate(0,0)"/>
<path d="" fill="#403E3A" transform="translate(0,0)"/>
<path d="" fill="#42403B" transform="translate(0,0)"/>
<path d="" fill="#41403D" transform="translate(0,0)"/>
<path d="" fill="#42423E" transform="translate(0,0)"/>
<path d="" fill="#43413E" transform="translate(0,0)"/>
<path d="" fill="#42423C" transform="translate(0,0)"/>
<path d="" fill="#44433F" transform="translate(0,0)"/>
<path d="" fill="#44433D" transform="translate(0,0)"/>
<path d="" fill="#43443E" transform="translate(0,0)"/>
<path d="" fill="#43423E" transform="translate(0,0)"/>
<path d="" fill="#45433F" transform="translate(0,0)"/>
<path d="" fill="#46423F" transform="translate(0,0)"/>
<path d="" fill="#3F3D39" transform="translate(0,0)"/>
<path d="" fill="#413F3D" transform="translate(0,0)"/>
<path d="" fill="#403E3A" transform="translate(0,0)"/>
<path d="" fill="#403B3A" transform="translate(0,0)"/>
<path d="" fill="#413F3B" transform="translate(0,0)"/>
<path d="" fill="#3F3D3B" transform="translate(0,0)"/>
<path d="" fill="#3E3C39" transform="translate(0,0)"/>
<path d="" fill="#3E4039" transform="translate(0,0)"/>
<path d="" fill="#403D38" transform="translate(0,0)"/>
<path d="" fill="#41403B" transform="translate(0,0)"/>
<path d="" fill="#403D39" transform="translate(0,0)"/>
<path d="" fill="#3F3C3A" transform="translate(0,0)"/>
<path d="" fill="#423F3B" transform="translate(0,0)"/>
<path d="" fill="#3E3C39" transform="translate(0,0)"/>
<path d="" fill="#3F3E3C" transform="translate(0,0)"/>
<path d="" fill="#41423E" transform="translate(0,0)"/>
<path d="" fill="#44443F" transform="translate(0,0)"/>
<path d="" fill="#3F3F3B" transform="translate(0,0)"/>
<path d="" fill="#42403B" transform="translate(0,0)"/>
<path d="" fill="#413F3B" transform="translate(0,0)"/>
<path d="" fill="#41413C" transform="translate(0,0)"/>
<path d="" fill="#42403D" transform="translate(0,0)"/>
<path d="" fill="#403F3B" transform="translate(0,0)"/>
<path d="" fill="#413E39" transform="translate(0,0)"/>
<path d="" fill="#413F3A" transform="translate(0,0)"/>
<path d="" fill="#413D3B" transform="translate(0,0)"/>
<path d="" fill="#413E39" transform="translate(0,0)"/>
<path d="" fill="#403F3B" transform="translate(0,0)"/>
<path d="" fill="#413E3B" transform="translate(0,0)"/>
<path d="" fill="#42413B" transform="translate(0,0)"/>
<path d="" fill="#413E3B" transform="translate(0,0)"/>
<path d="" fill="#42403D" transform="translate(0,0)"/>
<path d="" fill="#3E3C38" transform="translate(0,0)"/>
<path d="" fill="#43403C" transform="translate(0,0)"/>
<path d="" fill="#403F3C" transform="translate(0,0)"/>
<path d="" fill="#41403C" transform="translate(0,0)"/>
<path d="" fill="#44453F" transform="translate(0,0)"/>
<path d="" fill="#3D3C37" transform="translate(0,0)"/>
<path d="" fill="#3D3B37" transform="translate(0,0)"/>
<path d="" fill="#3D3C37" transform="translate(0,0)"/>
<path d="" fill="#413F3C" transform="translate(0,0)"/>
<path d="" fill="#42433C" transform="translate(0,0)"/>
<path d="" fill="#403D39" transform="translate(0,0)"/>
<path d="" fill="#3F3E3B" transform="translate(0,0)"/>
<path d="" fill="#41413D" transform="translate(0,0)"/>
<path d="" fill="#413E3B" transform="translate(0,0)"/>
<path d="" fill="#434340" transform="translate(0,0)"/>
<path d="" fill="#44423F" transform="translate(0,0)"/>
<path d="" fill="#43423E" transform="translate(0,0)"/>
<path d="" fill="#434141" transform="translate(0,0)"/>
<path d="" fill="#41403C" transform="translate(0,0)"/>
<path d="" fill="#44443E" transform="translate(0,0)"/>
<path d="" fill="#46443E" transform="translate(0,0)"/>
<path d="" fill="#44423F" transform="translate(0,0)"/>
<path d="" fill="#413F3C" transform="translate(0,0)"/>
<path d="" fill="#42413C" transform="translate(0,0)"/>
<path d="" fill="#43453E" transform="translate(0,0)"/>
<path d="" fill="#40413A" transform="translate(0,0)"/>
<path d="" fill="#3F3E3C" transform="translate(0,0)"/>
<path d="" fill="#43433F" transform="translate(0,0)"/>
<path d="" fill="#42413C" transform="translate(0,0)"/>
<path d="" fill="#41413D" transform="translate(0,0)"/>
<path d="" fill="#43423F" transform="translate(0,0)"/>
<path d="" fill="#44433E" transform="translate(0,0)"/>
<path d="" fill="#42403D" transform="translate(0,0)"/>
<path d="" fill="#44443F" transform="translate(0,0)"/>
<path d="" fill="#43403C" transform="translate(0,0)"/>
<path d="" fill="#423F3B" transform="translate(0,0)"/>
<path d="" fill="#413F3A" transform="translate(0,0)"/>
<path d="" fill="#41423D" transform="translate(0,0)"/>
<path d="" fill="#3F3E3A" transform="translate(0,0)"/>
<path d="" fill="#43423F" transform="translate(0,0)"/>
<path d="" fill="#45423E" transform="translate(0,0)"/>
<path d="" fill="#413E3D" transform="translate(0,0)"/>
<path d="" fill="#48453F" transform="translate(0,0)"/>
<path d="" fill="#44413E" transform="translate(0,0)"/>
<path d="" fill="#464741" transform="translate(0,0)"/>
<path d="" fill="#44443E" transform="translate(0,0)"/>
<path d="" fill="#45423F" transform="translate(0,0)"/>
<path d="" fill="#43413C" transform="translate(0,0)"/>
<path d="" fill="#41403B" transform="translate(0,0)"/>
<path d="" fill="#3E3E3A" transform="translate(0,0)"/>
<path d="" fill="#44423D" transform="translate(0,0)"/>
<path d="" fill="#3F3E3A" transform="translate(0,0)"/>
<path d="" fill="#44443E" transform="translate(0,0)"/>
<path d="" fill="#45433E" transform="translate(0,0)"/>
<path d="" fill="#43443D" transform="translate(0,0)"/>
<path d="" fill="#403F3C" transform="translate(0,0)"/>
<path d="" fill="#43423E" transform="translate(0,0)"/>
<path d="" fill="#43413E" transform="translate(0,0)"/>
<path d="" fill="#44433F" transform="translate(0,0)"/>
<path d="" fill="#44403C" transform="translate(0,0)"/>
<path d="" fill="#44423F" transform="translate(0,0)"/>
<path d="" fill="#464542" transform="translate(0,0)"/>
<path d="" fill="#403F3C" transform="translate(0,0)"/>
<path d="" fill="#41403D" transform="translate(0,0)"/>
<path d="" fill="#44423D" transform="translate(0,0)"/>
<path d="" fill="#44433C" transform="translate(0,0)"/>
<path d="" fill="#45433C" transform="translate(0,0)"/>
<path d="" fill="#45433E" transform="translate(0,0)"/>
<path d="" fill="#41403D" transform="translate(0,0)"/>
<path d="" fill="#43423B" transform="translate(0,0)"/>
<path d="" fill="#45423D" transform="translate(0,0)"/>
<path d="" fill="#43433F" transform="translate(0,0)"/>
<path d="" fill="#413D3B" transform="translate(0,0)"/>
<path d="" fill="#413E3A" transform="translate(0,0)"/>
<path d="" fill="#41413B" transform="translate(0,0)"/>
<path d="" fill="#413F3A" transform="translate(0,0)"/>
<path d="" fill="#42413B" transform="translate(0,0)"/>
<path d="" fill="#45433C" transform="translate(0,0)"/>
<path d="" fill="#42433D" transform="translate(0,0)"/>
<path d="" fill="#43413B" transform="translate(0,0)"/>
<path d="" fill="#43443E" transform="translate(0,0)"/>
<path d="" fill="#41403C" transform="translate(0,0)"/>
<path d="" fill="#413E3B" transform="translate(0,0)"/>
<path d="" fill="#43413A" transform="translate(0,0)"/>
<path d="" fill="#403E3D" transform="translate(0,0)"/>
<path d="" fill="#43403C" transform="translate(0,0)"/>
<path d="" fill="#423F3B" transform="translate(0,0)"/>
<path d="" fill="#43423F" transform="translate(0,0)"/>
<path d="" fill="#41423D" transform="translate(0,0)"/>
<path d="" fill="#41413D" transform="translate(0,0)"/>
<path d="" fill="#43433F" transform="translate(0,0)"/>
<path d="" fill="#433E3B" transform="translate(0,0)"/>
<path d="" fill="#46433F" transform="translate(0,0)"/>
<path d="" fill="#46443C" transform="translate(0,0)"/>
<path d="" fill="#423F3C" transform="translate(0,0)"/>
<path d="" fill="#45443C" transform="translate(0,0)"/>
<path d="" fill="#47433F" transform="translate(0,0)"/>
<path d="" fill="#43413D" transform="translate(0,0)"/>
<path d="" fill="#434440" transform="translate(0,0)"/>
<path d="" fill="#424340" transform="translate(0,0)"/>
<path d="" fill="#45443E" transform="translate(0,0)"/>
<path d="" fill="#44443D" transform="translate(0,0)"/>
<path d="" fill="#45443E" transform="translate(0,0)"/>
<path d="" fill="#443F3F" transform="translate(0,0)"/>
<path d="" fill="#43423F" transform="translate(0,0)"/>
<path d="" fill="#403E39" transform="translate(0,0)"/>
<path d="" fill="#47443F" transform="translate(0,0)"/>
<path d="" fill="#444240" transform="translate(0,0)"/>
<path d="" fill="#42403D" transform="translate(0,0)"/>
<path d="" fill="#45423E" transform="translate(0,0)"/>
<path d="" fill="#464440" transform="translate(0,0)"/>
<path d="" fill="#43413C" transform="translate(0,0)"/>
<path d="" fill="#41423C" transform="translate(0,0)"/>
<path d="" fill="#46453F" transform="translate(0,0)"/>
<path d="" fill="#403F3B" transform="translate(0,0)"/>
<path d="" fill="#43433E" transform="translate(0,0)"/>
<path d="" fill="#474740" transform="translate(0,0)"/>
<path d="" fill="#413F3B" transform="translate(0,0)"/>
<path d="" fill="#44433F" transform="translate(0,0)"/>
<path d="" fill="#413E3A" transform="translate(0,0)"/>
<path d="" fill="#46463F" transform="translate(0,0)"/>
<path d="" fill="#474640" transform="translate(0,0)"/>
<path d="" fill="#444440" transform="translate(0,0)"/>
<path d="" fill="#403E39" transform="translate(0,0)"/>
<path d="" fill="#454140" transform="translate(0,0)"/>
<path d="" fill="#44423E" transform="translate(0,0)"/>
<path d="" fill="#3F3E3A" transform="translate(0,0)"/>
<path d="" fill="#484541" transform="translate(0,0)"/>
<path d="" fill="#3D3E3B" transform="translate(0,0)"/>
<path d="" fill="#444340" transform="translate(0,0)"/>
<path d="" fill="#413E3C" transform="translate(0,0)"/>
<path d="" fill="#43423C" transform="translate(0,0)"/>
<path d="" fill="#444441" transform="translate(0,0)"/>
<path d="" fill="#3D3D38" transform="translate(0,0)"/>
<path d="" fill="#403E3A" transform="translate(0,0)"/>
<path d="" fill="#40403B" transform="translate(0,0)"/>
<path d="" fill="#43403C" transform="translate(0,0)"/>
<path d="" fill="#42403B" transform="translate(0,0)"/>
<path d="" fill="#423F3A" transform="translate(0,0)"/>
<path d="" fill="#41403A" transform="translate(0,0)"/>
<path d="" fill="#403E3C" transform="translate(0,0)"/>
<path d="" fill="#42423B" transform="translate(0,0)"/>
<path d="" fill="#413F3B" transform="translate(0,0)"/>
<path d="" fill="#45433F" transform="translate(0,0)"/>
<path d="" fill="#42423C" transform="translate(0,0)"/>
<path d="" fill="#464341" transform="translate(0,0)"/>
<path d="" fill="#44423E" transform="translate(0,0)"/>
<path d="" fill="#403E3A" transform="translate(0,0)"/>
<path d="" fill="#423E3C" transform="translate(0,0)"/>
<path d="" fill="#43403C" transform="translate(0,0)"/>
<path d="" fill="#474642" transform="translate(0,0)"/>
<path d="" fill="#43403C" transform="translate(0,0)"/>
<path d="" fill="#3F3C3B" transform="translate(0,0)"/>
<path d="" fill="#46413E" transform="translate(0,0)"/>
<path d="" fill="#454540" transform="translate(0,0)"/>
<path d="" fill="#44413E" transform="translate(0,0)"/>
<path d="" fill="#43423D" transform="translate(0,0)"/>
<path d="" fill="#44423E" transform="translate(0,0)"/>
<path d="" fill="#42423D" transform="translate(0,0)"/>
<path d="" fill="#3F3F3A" transform="translate(0,0)"/>
<path d="" fill="#41413D" transform="translate(0,0)"/>
<path d="" fill="#44423E" transform="translate(0,0)"/>
<path d="" fill="#44423E" transform="translate(0,0)"/>
<path d="" fill="#42423F" transform="translate(0,0)"/>
<path d="" fill="#40403C" transform="translate(0,0)"/>
<path d="" fill="#43423D" transform="translate(0,0)"/>
<path d="" fill="#41413D" transform="translate(0,0)"/>
<path d="" fill="#3F3F3C" transform="translate(0,0)"/>
<path d="" fill="#40403C" transform="translate(0,0)"/>
<path d="" fill="#44413D" transform="translate(0,0)"/>
<path d="" fill="#41403D" transform="translate(0,0)"/>
<path d="" fill="#45413B" transform="translate(0,0)"/>
<path d="" fill="#42403D" transform="translate(0,0)"/>
<path d="" fill="#454341" transform="translate(0,0)"/>
<path d="" fill="#43423D" transform="translate(0,0)"/>
<path d="" fill="#42423D" transform="translate(0,0)"/>
<path d="" fill="#444440" transform="translate(0,0)"/>
<path d="" fill="#44433F" transform="translate(0,0)"/>
<path d="" fill="#43423D" transform="translate(0,0)"/>
<path d="" fill="#44433D" transform="translate(0,0)"/>
<path d="" fill="#44433D" transform="translate(0,0)"/>
<path d="" fill="#423F3C" transform="translate(0,0)"/>
<path d="" fill="#423F3B" transform="translate(0,0)"/>
<path d="" fill="#43403B" transform="translate(0,0)"/>
<path d="" fill="#42413E" transform="translate(0,0)"/>
<path d="" fill="#42403B" transform="translate(0,0)"/>
<path d="" fill="#40403D" transform="translate(0,0)"/>
<path d="" fill="#42403A" transform="translate(0,0)"/>
<path d="" fill="#433F3A" transform="translate(0,0)"/>
<path d="" fill="#3F3F3C" transform="translate(0,0)"/>
<path d="" fill="#43423D" transform="translate(0,0)"/>
<path d="" fill="#42413C" transform="translate(0,0)"/>
<path d="" fill="#423F3C" transform="translate(0,0)"/>
<path d="" fill="#40433C" transform="translate(0,0)"/>
<path d="" fill="#42403E" transform="translate(0,0)"/>
<path d="" fill="#42433E" transform="translate(0,0)"/>
<path d="" fill="#43423B" transform="translate(0,0)"/>
<path d="" fill="#42413C" transform="translate(0,0)"/>
<path d="" fill="#423F3B" transform="translate(0,0)"/>
<path d="" fill="#43403B" transform="translate(0,0)"/>
<path d="" fill="#403E3C" transform="translate(0,0)"/>
<path d="" fill="#434340" transform="translate(0,0)"/>
<path d="" fill="#42413B" transform="translate(0,0)"/>
<path d="" fill="#44413C" transform="translate(0,0)"/>
<path d="" fill="#44423D" transform="translate(0,0)"/>
<path d="" fill="#44423D" transform="translate(0,0)"/>
<path d="" fill="#43413D" transform="translate(0,0)"/>
<path d="" fill="#413D3B" transform="translate(0,0)"/>
<path d="" fill="#403F3C" transform="translate(0,0)"/>
<path d="" fill="#42403D" transform="translate(0,0)"/>
<path d="" fill="#454440" transform="translate(0,0)"/>
<path d="" fill="#423F3F" transform="translate(0,0)"/>
<path d="" fill="#40403B" transform="translate(0,0)"/>
<path d="" fill="#40413D" transform="translate(0,0)"/>
<path d="" fill="#43423E" transform="translate(0,0)"/>
<path d="" fill="#41403B" transform="translate(0,0)"/>
<path d="" fill="#41413C" transform="translate(0,0)"/>
<path d="" fill="#3D3E3C" transform="translate(0,0)"/>
<path d="" fill="#43403D" transform="translate(0,0)"/>
<path d="" fill="#3F3E3B" transform="translate(0,0)"/>
<path d="" fill="#40403B" transform="translate(0,0)"/>
<path d="" fill="#43413B" transform="translate(0,0)"/>
<path d="" fill="#43423C" transform="translate(0,0)"/>
<path d="" fill="#43443D" transform="translate(0,0)"/>
<path d="" fill="#41403D" transform="translate(0,0)"/>
<path d="" fill="#41413A" transform="translate(0,0)"/>
<path d="" fill="#42423C" transform="translate(0,0)"/>
<path d="" fill="#44423B" transform="translate(0,0)"/>
<path d="" fill="#43443E" transform="translate(0,0)"/>
<path d="" fill="#42403B" transform="translate(0,0)"/>
<path d="" fill="#45423E" transform="translate(0,0)"/>
<path d="" fill="#42403C" transform="translate(0,0)"/>
<path d="" fill="#403E3B" transform="translate(0,0)"/>
<path d="" fill="#45423F" transform="translate(0,0)"/>
<path d="" fill="#3E3E38" transform="translate(0,0)"/>
<path d="" fill="#42433E" transform="translate(0,0)"/>
<path d="" fill="#41413C" transform="translate(0,0)"/>
<path d="" fill="#413F3C" transform="translate(0,0)"/>
<path d="" fill="#43423C" transform="translate(0,0)"/>
<path d="" fill="#413F3A" transform="translate(0,0)"/>
<path d="" fill="#45443B" transform="translate(0,0)"/>
<path d="" fill="#494740" transform="translate(0,0)"/>
<path d="" fill="#42403D" transform="translate(0,0)"/>
<path d="" fill="#42413A" transform="translate(0,0)"/>
<path d="" fill="#42423E" transform="translate(0,0)"/>
<path d="" fill="#43423D" transform="translate(0,0)"/>
<path d="" fill="#44403D" transform="translate(0,0)"/>
<path d="" fill="#41403D" transform="translate(0,0)"/>
<path d="" fill="#44423F" transform="translate(0,0)"/>
<path d="" fill="#44423C" transform="translate(0,0)"/>
<path d="" fill="#403F3C" transform="translate(0,0)"/>
<path d="" fill="#43423C" transform="translate(0,0)"/>
<path d="" fill="#43403C" transform="translate(0,0)"/>
<path d="" fill="#43423F" transform="translate(0,0)"/>
<path d="" fill="#44433D" transform="translate(0,0)"/>
<path d="" fill="#45423D" transform="translate(0,0)"/>
<path d="" fill="#41403D" transform="translate(0,0)"/>
<path d="" fill="#42403C" transform="translate(0,0)"/>
<path d="" fill="#3D3D38" transform="translate(0,0)"/>
<path d="" fill="#42403B" transform="translate(0,0)"/>
<path d="" fill="#413E3B" transform="translate(0,0)"/>
<path d="" fill="#3F3E3B" transform="translate(0,0)"/>
<path d="" fill="#403F3B" transform="translate(0,0)"/>
<path d="" fill="#413F3B" transform="translate(0,0)"/>
<path d="" fill="#3F3F3D" transform="translate(0,0)"/>
<path d="" fill="#46453F" transform="translate(0,0)"/>
<path d="" fill="#42403E" transform="translate(0,0)"/>
<path d="" fill="#3F403E" transform="translate(0,0)"/>
<path d="" fill="#433F3B" transform="translate(0,0)"/>
<path d="" fill="#41403B" transform="translate(0,0)"/>
<path d="" fill="#424039" transform="translate(0,0)"/>
<path d="" fill="#43413B" transform="translate(0,0)"/>
<path d="" fill="#43403B" transform="translate(0,0)"/>
<path d="" fill="#42413A" transform="translate(0,0)"/>
<path d="" fill="#42403E" transform="translate(0,0)"/>
<path d="" fill="#42413B" transform="translate(0,0)"/>
<path d="" fill="#43423C" transform="translate(0,0)"/>
<path d="" fill="#41413B" transform="translate(0,0)"/>
<path d="" fill="#43413B" transform="translate(0,0)"/>
<path d="" fill="#43413C" transform="translate(0,0)"/>
<path d="" fill="#43413E" transform="translate(0,0)"/>
<path d="" fill="#43423B" transform="translate(0,0)"/>
<path d="" fill="#43413A" transform="translate(0,0)"/>
<path d="" fill="#42413C" transform="translate(0,0)"/>
<path d="" fill="#44423C" transform="translate(0,0)"/>
<path d="" fill="#43423C" transform="translate(0,0)"/>
<path d="" fill="#42413D" transform="translate(0,0)"/>
<path d="" fill="#42423B" transform="translate(0,0)"/>
<path d="" fill="#44423E" transform="translate(0,0)"/>
<path d="" fill="#45433D" transform="translate(0,0)"/>
<path d="" fill="#41413B" transform="translate(0,0)"/>
<path d="" fill="#42413C" transform="translate(0,0)"/>
<path d="" fill="#42423C" transform="translate(0,0)"/>
<path d="" fill="#43423C" transform="translate(0,0)"/>
<path d="" fill="#45423D" transform="translate(0,0)"/>
<path d="" fill="#43413C" transform="translate(0,0)"/>
<path d="" fill="#43423C" transform="translate(0,0)"/>
<path d="" fill="#43413C" transform="translate(0,0)"/>
<path d="" fill="#43403C" transform="translate(0,0)"/>
<path d="" fill="#43413C" transform="translate(0,0)"/>
<path d="" fill="#43413B" transform="translate(0,0)"/>
<path d="" fill="#43413C" transform="translate(0,0)"/>
<path d="" fill="#4A4740" transform="translate(0,0)"/>
<path d="" fill="#49473E" transform="translate(0,0)"/>
<path d="" fill="#4A463E" transform="translate(0,0)"/>
</svg>
