<?xml version="1.0" encoding="UTF-8"?>
<svg version="1.1" xmlns="http://www.w3.org/2000/svg" width="512" height="512">
<path d="M0 0 C11.32483593 9.8148578 19.65566779 21.87790047 22.203125 36.859375 C22.41769985 40.87565637 22.39238316 44.84289621 22.203125 48.859375 C23.21890625 48.94574219 24.2346875 49.03210938 25.28125 49.12109375 C35.3400436 50.09974741 44.8785252 51.67107831 53.05859375 58.10546875 C57.10641322 60.36319663 59.64097984 59.6874724 63.890625 58.546875 C75.42308821 55.96301264 84.68767657 57.02222812 95.203125 62.859375 C99.82497914 66.29002962 103.99311824 70.04936488 107.203125 74.859375 C107.203125 75.519375 107.203125 76.179375 107.203125 76.859375 C108.151875 77.024375 109.100625 77.189375 110.078125 77.359375 C116.32296403 79.17075833 122.249853 83.78347502 125.71875 89.24609375 C126.14671875 90.02597656 126.5746875 90.80585938 127.015625 91.609375 C129.57882558 95.90606961 132.15023118 96.91528152 136.890625 98.359375 C138.98923383 98.8822118 141.09280197 99.38603152 143.203125 99.859375 C144.193125 100.189375 145.183125 100.519375 146.203125 100.859375 C148.1682521 100.54083427 148.1682521 100.54083427 150.265625 99.921875 C157.14810036 98.28478135 163.36572512 98.31174874 170.203125 100.109375 C175.20455737 101.25143436 178.33852639 100.10123846 182.87890625 97.90234375 C185.203125 96.859375 185.203125 96.859375 187.8203125 96.48046875 C190.3225441 96.07475496 190.3225441 96.07475496 191.72265625 94.0390625 C192.14933594 93.27851563 192.57601563 92.51796875 193.015625 91.734375 C197.2020946 84.97575569 202.72909282 79.81422493 210.203125 76.859375 C211.193125 76.859375 212.183125 76.859375 213.203125 76.859375 C213.38875 76.17875 213.574375 75.498125 213.765625 74.796875 C217.89706052 66.35437633 225.74433716 62.21942313 234.203125 58.859375 C243.12903321 55.91861859 253.47845284 56.54890898 262.36328125 59.6015625 C265.15357307 59.99255881 266.42357224 58.74096715 268.703125 57.171875 C277.99587189 51.31281171 287.30696116 49.24576379 298.203125 48.859375 C298.15671875 48.15554688 298.1103125 47.45171875 298.0625 46.7265625 C297.50481913 31.47000735 302.72010119 18.57149451 312.62890625 7.03515625 C323.22516155 -3.98956349 336.57761476 -11.74897685 352.20703125 -12.34375 C369.93010124 -12.65086176 384.81436216 -9.07371045 397.9609375 3.58984375 C399.07082031 4.71326172 399.07082031 4.71326172 400.203125 5.859375 C400.83992188 6.47425781 401.47671875 7.08914063 402.1328125 7.72265625 C414.23047569 20.27734227 416.81866144 35.7367996 416.515625 52.421875 C416.24205025 59.05150305 414.90331028 64.79239619 412.203125 70.859375 C411.790625 71.79652344 411.378125 72.73367188 410.953125 73.69921875 C407.24690594 81.20641816 401.42796547 90.01842401 393.92578125 94.09765625 C390.97219898 97.11821318 391.74380788 101.00280903 391.765625 105.046875 C391.36424394 122.01977871 386.23776807 135.74522417 374.328125 148.171875 C364.76833645 157.2436263 352.41579655 164.54685086 338.83813477 164.92529297 C338.03174561 164.90096191 337.22535645 164.87663086 336.39453125 164.8515625 C335.48952881 164.83287109 334.58452637 164.81417969 333.65209961 164.79492188 C332.69956299 164.77494141 331.74702637 164.75496094 330.765625 164.734375 C322.84281168 164.63578576 316.03601859 165.26965108 308.34765625 167.17578125 C295.20506245 170.03286686 280.22164916 166.74175582 268.51171875 160.34375 C262.14781017 156.25189677 256.37400054 151.37497558 251.203125 145.859375 C250.5740625 146.26929688 249.945 146.67921875 249.296875 147.1015625 C238.80037122 153.70930132 228.37121108 155.74692213 216.015625 153.203125 C212.72944897 152.80148126 211.90492943 153.20885875 209.328125 155.171875 C203.15942724 159.39379742 196.66951375 160.62656357 189.203125 159.859375 C186.77632524 159.26152482 184.37667242 158.64366065 181.98828125 157.90625 C178.92551991 157.85470282 177.71763395 158.44939985 175.01171875 159.78125 C169.98820042 162.18038706 165.70896849 162.46102134 160.203125 162.359375 C159.36523438 162.37484375 158.52734375 162.3903125 157.6640625 162.40625 C152.05296689 162.37150637 148.18103182 161.15276424 143.17236328 158.6875 C140.52545817 157.57439535 138.85852985 157.77022771 136.140625 158.609375 C127.84587903 160.74377034 121.20299762 160.09164677 113.203125 156.859375 C112.130625 156.116875 111.058125 155.374375 109.953125 154.609375 C106.4077183 152.3532071 105.24487796 153.08211482 101.203125 153.859375 C88.3682108 154.6501517 79.11635234 152.52856949 68.203125 145.859375 C67.83703125 146.3440625 67.4709375 146.82875 67.09375 147.328125 C57.33882671 159.40564907 43.44493542 165.87131277 28.203125 167.859375 C21.30386558 168.29849555 14.88561658 168.22098895 8.203125 166.359375 C2.08454557 164.73776377 -3.58514277 164.73651556 -9.859375 164.859375 C-26.72022677 165.12251633 -40.31849906 160.78063519 -52.70336914 149.03149414 C-62.0776348 139.80411646 -70.5152484 127.17258028 -70.85400391 113.56445312 C-70.85086182 112.31051758 -70.85086182 112.31051758 -70.84765625 111.03125 C-70.46433122 101.49132261 -70.46433122 101.49132261 -73.83203125 92.921875 C-76.3901423 90.70074522 -76.3901423 90.70074522 -79.16015625 88.78125 C-88.32230247 82.10306342 -93.89163251 68.75590098 -95.796875 57.859375 C-97.50107338 38.63677055 -94.16216202 22.63784065 -82.109375 7.171875 C-74.55768338 -1.02080901 -65.29253833 -6.62730872 -54.796875 -10.140625 C-54.09691406 -10.38554687 -53.39695313 -10.63046875 -52.67578125 -10.8828125 C-34.62334199 -16.02054375 -14.61854572 -11.18849589 0 0 Z " fill="#FDC00E" transform="translate(95.796875,344.140625)"/>
<path d="M0 0 C2.36032353 1.79675463 4.18530393 3.42564078 6.1875 5.5625 C6.75065918 6.14821777 7.31381836 6.73393555 7.89404297 7.33740234 C19.00519375 19.16156815 27.3367735 32.76662355 35 47 C35.58346191 48.07266113 35.58346191 48.07266113 36.17871094 49.16699219 C53.59997686 81.75820692 65.11697173 124.18883806 65.08984375 161.015625 C64.42624342 175.08326233 64.42624342 175.08326233 70.26953125 187.09765625 C73.76297107 189.82168254 77.56932924 191.79223589 81.54638672 193.71630859 C85.8684893 195.97756385 89.66693461 198.95782713 93.5625 201.875 C94.99984172 202.9160817 96.43859257 203.95522133 97.87890625 204.9921875 C109.30331844 213.30331844 109.30331844 213.30331844 112 216 C112.20928947 218.90055673 112.29363405 221.7063923 112.29052734 224.60888672 C112.29724457 225.50008209 112.30396179 226.39127747 112.31088257 227.30947876 C112.32993693 230.26627116 112.33379058 233.22283746 112.3359375 236.1796875 C112.34236057 238.22991023 112.34908855 240.28013202 112.35610962 242.33035278 C112.36810122 246.63285447 112.37178854 250.93527575 112.37060547 255.23779297 C112.37040224 260.7551301 112.39769976 266.27195233 112.43214989 271.7891674 C112.45437211 276.02534357 112.45844444 280.26139495 112.45738602 284.49762344 C112.45974921 286.53182881 112.46861295 288.56603724 112.48405075 290.60018539 C112.50361491 293.44459967 112.49791029 296.28789244 112.48583984 299.13232422 C112.49707886 299.97506897 112.50831787 300.81781372 112.51989746 301.68609619 C112.48049859 305.33392052 112.33015015 307.54363838 110.16152954 310.54129028 C108 312 108 312 104.9296875 312.20703125 C99.26403111 310.99769524 94.71087907 307.02724935 90.125 303.6875 C89.11501953 302.96852539 88.10503906 302.24955078 87.06445312 301.50878906 C84.03492562 299.35017886 81.01717917 297.17582125 78 295 C75.55661974 293.25531514 73.10986231 291.51561701 70.65966797 289.78051758 C69.26750701 288.79391831 67.87826981 287.80317396 66.49267578 286.80737305 C62.45498384 283.92783111 58.34353829 281.39566287 54 279 C53.87044922 280.37478516 53.87044922 280.37478516 53.73828125 281.77734375 C52.95202148 287.25086845 51.01294935 292.36444188 49.1875 297.5625 C48.84396484 298.57763672 48.50042969 299.59277344 48.14648438 300.63867188 C44.29326622 311.70673378 44.29326622 311.70673378 40 316 C38.00041636 316.04080783 35.99954746 316.04254356 34 316 C34.03480469 316.76183594 34.06960938 317.52367187 34.10546875 318.30859375 C34.32114487 326.53509737 34.04171836 333.41233219 28.5625 339.875 C27.716875 340.57625 26.87125 341.2775 26 342 C25.071875 342.8353125 25.071875 342.8353125 24.125 343.6875 C18.7820273 346.98757137 12.88183853 347.30850014 6.7578125 347.30078125 C5.99000458 347.30506638 5.22219666 347.3093515 4.43112183 347.31376648 C2.81590759 347.31947746 1.20066766 347.32003405 -0.41455078 347.31567383 C-2.86145752 347.31251747 -5.30714882 347.33599988 -7.75390625 347.36132812 C-16.97556812 347.39844773 -24.49745308 347.12644712 -32.75 342.4375 C-39.41399409 335.21817307 -40.5356199 328.35461339 -40.17578125 318.7109375 C-40.11777344 317.81632812 -40.05976563 316.92171875 -40 316 C-41.3921875 316.0928125 -41.3921875 316.0928125 -42.8125 316.1875 C-46 316 -46 316 -47.69921875 314.91015625 C-49.52837525 312.2240976 -50.62719417 309.46443804 -51.8125 306.4375 C-52.06531738 305.79288818 -52.31813477 305.14827637 -52.57861328 304.48413086 C-55.68620831 296.42793487 -58.34653873 288.2144386 -61 280 C-63.5991467 280 -64.38728788 280.84568785 -66.46484375 282.38671875 C-67.17326416 282.9067749 -67.88168457 283.42683105 -68.61157227 283.96264648 C-69.76290649 284.81644897 -69.76290649 284.81644897 -70.9375 285.6875 C-77.57377256 290.54736597 -84.26582613 295.30436046 -91.0625 299.9375 C-91.82232178 300.45594482 -92.58214355 300.97438965 -93.36499023 301.50854492 C-94.8345161 302.50820817 -96.30662591 303.50408523 -97.78149414 304.49584961 C-99.33826846 305.55134499 -100.88344459 306.62405364 -102.41967773 307.70922852 C-103.20930908 308.25893311 -103.99894043 308.8086377 -104.8125 309.375 C-105.52148438 309.87644531 -106.23046875 310.37789063 -106.9609375 310.89453125 C-109 312 -109 312 -112.9375 312.0625 C-116 311 -116 311 -118 308 C-118.21050059 305.06709772 -118.30407906 302.22784074 -118.30639648 299.29345703 C-118.31472 298.40372192 -118.32304352 297.51398682 -118.33161926 296.59729004 C-118.35575015 293.65075325 -118.36449508 290.70443768 -118.37109375 287.7578125 C-118.3800576 285.71141492 -118.3891794 283.66501803 -118.39845276 281.61862183 C-118.41495362 277.32629807 -118.42264489 273.03405243 -118.42553711 268.74169922 C-118.43092258 263.24120304 -118.468605 257.74144068 -118.51428127 252.24115181 C-118.54402157 248.01351235 -118.55126001 243.78605026 -118.55226326 239.55831528 C-118.55647143 237.53050245 -118.56892958 235.50268938 -118.58978081 233.4749794 C-118.61663271 230.63788118 -118.61188833 227.80249238 -118.59936523 224.96533203 C-118.61419952 224.1277536 -118.62903381 223.29017517 -118.64431763 222.42721558 C-118.59024881 218.12636033 -118.41542061 216.51254958 -115.6131134 213.05503845 C-113.13754232 211.10816781 -110.67691096 209.21299956 -108.078125 207.43359375 C-106.67469849 206.46945557 -106.67469849 206.46945557 -105.24291992 205.48583984 C-104.25525635 204.8098877 -103.26759277 204.13393555 -102.25 203.4375 C-101.23462158 202.71771973 -100.21924316 201.99793945 -99.1730957 201.25634766 C-94.49377322 197.957839 -89.92765318 194.85460038 -84.77734375 192.33984375 C-80.04654847 189.90291535 -75.86506794 187.62114296 -73 183 C-70.82236148 175.20781917 -71.08724491 167.03149829 -71.09594727 158.99928284 C-71.0750981 152.08814806 -70.22484543 145.3845661 -69.1875 138.5625 C-68.92743164 136.82963745 -68.92743164 136.82963745 -68.66210938 135.06176758 C-61.16960581 87.01097995 -44.06448231 35.57754062 -8.03125 1.1171875 C-5.05640614 -0.51897662 -3.3510326 -0.57172038 0 0 Z " fill="#E3E9F5" transform="translate(259,0)"/>
<path d="M0 0 C9.26341158 5.67147648 17.98987179 11.97987465 26.76074219 18.37646484 C28.8857326 19.9171524 31.02126791 21.44123297 33.1640625 22.95703125 C33.8036792 23.40973389 34.4432959 23.86243652 35.10229492 24.32885742 C36.29103591 25.16842452 37.4812153 26.00596018 38.6730957 26.84106445 C43.98652437 30.60194662 43.98652437 30.60194662 46 33 C46.30155186 35.97641069 46.41995189 38.74436076 46.40405273 41.72241211 C46.41091599 42.61375351 46.41777924 43.50509491 46.42485046 44.42344666 C46.44317739 47.37490695 46.43927251 50.32583867 46.43359375 53.27734375 C46.43815282 55.32613804 46.44345757 57.3749308 46.44947815 59.42372131 C46.45842091 63.72028816 46.45597297 68.01666926 46.44604492 72.31323242 C46.43455559 77.82272319 46.45476047 83.33157303 46.48396206 88.84097958 C46.50229762 93.0728819 46.50203684 97.3046299 46.49632454 101.53656197 C46.49617099 103.56796734 46.50224289 105.59938296 46.51461601 107.63075066 C46.52947369 110.47030855 46.51888734 113.30867313 46.50170898 116.14819336 C46.51137695 116.98936707 46.52104492 117.83054077 46.53100586 118.69720459 C46.48479273 122.34037502 46.32749729 124.54772606 44.16053772 127.54029846 C42 129 42 129 38.9296875 129.20703125 C33.26412298 127.99771485 28.71068744 124.02738683 24.125 120.6875 C23.11574463 119.96852539 22.10648926 119.24955078 21.06665039 118.50878906 C19.01507134 117.04618085 16.96726535 115.57826521 14.92333984 114.10498047 C11.50145223 111.64101563 8.05881431 109.20777233 4.61083984 106.78051758 C3.2070712 105.79195033 1.80493187 104.80106353 0.40478516 103.80737305 C-3.35593716 101.13907851 -7.15047485 98.5386699 -11 96 C-10.34768515 89.44357013 -9.34646734 83.03489278 -8.125 76.5625 C-7.76485088 74.60691324 -7.40548609 72.65118189 -7.046875 70.6953125 C-6.86962891 69.73141602 -6.69238281 68.76751953 -6.50976562 67.77441406 C-6.25743164 66.4010791 -6.25743164 66.4010791 -6 65 C-5.85240234 64.19788086 -5.70480469 63.39576172 -5.55273438 62.56933594 C-1.77562807 41.81315225 -0.61615132 21.06686493 0 0 Z " fill="#FE6363" transform="translate(325,183)"/>
<path d="M0 0 C0.01458252 0.55945313 0.02916504 1.11890625 0.04418945 1.6953125 C0.804499 28.43241699 3.23023977 54.39887858 8.6953125 80.5625 C9.13216056 82.70793675 9.56729286 84.85372425 10 87 C10.17813232 87.82846436 10.35626465 88.65692871 10.53979492 89.51049805 C10.92578125 91.63671875 10.92578125 91.63671875 11 95 C9.47265625 97.14453125 9.47265625 97.14453125 7.0625 98.8125 C5.67417969 99.80443359 5.67417969 99.80443359 4.2578125 100.81640625 C3.18273437 101.53699219 2.10765625 102.25757813 1 103 C-0.21236992 103.8403852 -1.42324279 104.68293316 -2.6328125 105.52734375 C-5.3040865 107.3838185 -7.98751442 109.22085465 -10.6796875 111.046875 C-15.94973862 114.63118696 -21.14126002 118.32535497 -26.32836914 122.02832031 C-36.1787106 129.02784032 -36.1787106 129.02784032 -40.6875 128.875 C-44 128 -44 128 -46 125 C-46.21050059 122.06709772 -46.30407906 119.22784074 -46.30639648 116.29345703 C-46.31472 115.40372192 -46.32304352 114.51398682 -46.33161926 113.59729004 C-46.35575015 110.65075325 -46.36449508 107.70443768 -46.37109375 104.7578125 C-46.3800576 102.71141492 -46.3891794 100.66501803 -46.39845276 98.61862183 C-46.41495362 94.32629807 -46.42264489 90.03405243 -46.42553711 85.74169922 C-46.43092258 80.24120304 -46.468605 74.74144068 -46.51428127 69.24115181 C-46.54402157 65.01351235 -46.55126001 60.78605026 -46.55226326 56.55831528 C-46.55647143 54.53050245 -46.56892958 52.50268938 -46.58978081 50.4749794 C-46.61663271 47.63788118 -46.61188833 44.80249238 -46.59936523 41.96533203 C-46.61419952 41.1277536 -46.62903381 40.29017517 -46.64431763 39.42721558 C-46.59024881 35.12636033 -46.41542061 33.51254958 -43.6131134 30.05503845 C-41.13754232 28.10816781 -38.67691096 26.21299956 -36.078125 24.43359375 C-34.67457764 23.46583008 -34.67457764 23.46583008 -33.24267578 22.47851562 C-32.25509277 21.80498047 -31.26750977 21.13144531 -30.25 20.4375 C-28.18969768 19.02012194 -26.1298058 17.60214709 -24.0703125 16.18359375 C-23.04969727 15.48218262 -22.02908203 14.78077148 -20.97753906 14.05810547 C-15.93769502 10.5745137 -10.94802755 7.02023308 -5.96582031 3.45483398 C-1.10736537 0 -1.10736537 0 0 0 Z " fill="#FE6363" transform="translate(187,183)"/>
<path d="M0 0 C35.64 0 71.28 0 108 0 C104.58 12.54 104.58 12.54 102.5 17.5 C102.0978125 18.4796875 101.695625 19.459375 101.28125 20.46875 C99.24642614 24.48876787 99.24642614 24.48876787 97 26 C93.8125 26.1875 93.8125 26.1875 91 26 C91.05220703 27.14275391 91.05220703 27.14275391 91.10546875 28.30859375 C91.32114487 36.53509737 91.04171836 43.41233219 85.5625 49.875 C84.716875 50.57625 83.87125 51.2775 83 52 C82.38125 52.556875 81.7625 53.11375 81.125 53.6875 C75.7820273 56.98757137 69.88183853 57.30850014 63.7578125 57.30078125 C62.99000458 57.30506638 62.22219666 57.3093515 61.43112183 57.31376648 C59.81590759 57.31947746 58.20066766 57.32003405 56.58544922 57.31567383 C54.13854248 57.31251747 51.69285118 57.33599988 49.24609375 57.36132812 C40.02443188 57.39844773 32.50254692 57.12644712 24.25 52.4375 C17.58600591 45.21817307 16.4643801 38.35461339 16.82421875 28.7109375 C16.88222656 27.81632812 16.94023437 26.92171875 17 26 C16.071875 26.061875 15.14375 26.12375 14.1875 26.1875 C11 26 11 26 9.31640625 24.94921875 C7.38744711 22.09298548 6.16951823 19.01070589 4.9375 15.8125 C4.68162109 15.17763672 4.42574219 14.54277344 4.16210938 13.88867188 C2.33728308 9.24920347 1.23903564 4.95614255 0 0 Z " fill="#E3E9F5" transform="translate(202,290)"/>
<path d="M0 0 C2.36032353 1.79675463 4.18530393 3.42564078 6.1875 5.5625 C6.75065918 6.14821777 7.31381836 6.73393555 7.89404297 7.33740234 C20.58226843 20.83984548 41.02469242 45.83156775 42.17578125 64.9140625 C42.11777344 65.60242188 42.05976563 66.29078125 42 67 C19.78927304 77.64201722 -5.38234103 83.15102095 -29.61328125 75.35546875 C-35.88203341 72.84652181 -41.97390832 70.04296261 -48 67 C-48.79042066 60.71823584 -46.03896007 56.1671542 -43.25 50.75 C-42.51269653 49.29932129 -42.51269653 49.29932129 -41.76049805 47.81933594 C-15.88346636 -1.99732212 -15.88346636 -1.99732212 0 0 Z " fill="#FE6666" transform="translate(259,0)"/>
<path d="M0 0 C8.18733994 6.22630043 15.06204129 13.86976922 16.53637695 24.38916016 C16.67107532 26.61780579 16.70288096 28.81444574 16.671875 31.046875 C16.66212646 31.83513672 16.65237793 32.62339844 16.64233398 33.43554688 C16.27767554 45.49028975 11.98204755 52.99338195 3.234375 61.234375 C-5.36433916 68.91245595 -15.12062008 70.09574047 -26.296875 69.72265625 C-35.2459286 69.0484385 -43.44778736 63.97891659 -49.42578125 57.41015625 C-49.88855469 56.79527344 -50.35132813 56.18039063 -50.828125 55.546875 C-51.29347656 54.94488281 -51.75882813 54.34289062 -52.23828125 53.72265625 C-56.49080736 46.79462778 -58.52411088 40.69828755 -58.453125 32.546875 C-58.44659912 31.67836914 -58.44007324 30.80986328 -58.43334961 29.91503906 C-58.04350349 19.32763929 -54.09127581 10.96819504 -46.328125 3.609375 C-32.73909029 -7.1880244 -15.04616968 -9.60574674 0 0 Z " fill="#5AAFEA" transform="translate(276.765625,98.765625)"/>
<path d="M0 0 C24.42 0 48.84 0 74 0 C74 17.46153846 74 17.46153846 68.5625 23.875 C67.716875 24.57625 66.87125 25.2775 66 26 C65.38125 26.556875 64.7625 27.11375 64.125 27.6875 C58.7820273 30.98757137 52.88183853 31.30850014 46.7578125 31.30078125 C45.99000458 31.30506638 45.22219666 31.3093515 44.43112183 31.31376648 C42.81590759 31.31947746 41.20066766 31.32003405 39.58544922 31.31567383 C37.13854248 31.31251747 34.69285118 31.33599988 32.24609375 31.36132812 C23.02443188 31.39844773 15.50254692 31.12644712 7.25 26.4375 C-0.34872576 18.20554709 0 11.69242247 0 0 Z " fill="#6F7387" transform="translate(219,316)"/>
<path d="M0 0 C37.95 0 75.9 0 115 0 C114 8 114 8 112 12 C76.03 12 40.06 12 3 12 C2.01 8.04 1.02 4.08 0 0 Z " fill="#73778A" transform="translate(198,278)"/>
<path d="M0 0 C-1.46908612 3.38962134 -3.35783526 5.61085891 -5.95898438 8.21777344 C-6.77322876 9.03832214 -7.58747314 9.85887085 -8.4263916 10.70428467 C-9.30661987 11.58046448 -10.18684814 12.45664429 -11.09375 13.359375 C-11.9962146 14.26375305 -12.8986792 15.1681311 -13.82849121 16.09991455 C-15.73595104 18.00873491 -17.64530412 19.91540549 -19.55810547 21.81884766 C-22.01306309 24.26237881 -24.45888993 26.71482235 -26.90215302 29.17004013 C-29.23200594 31.50883913 -31.56944531 33.84002493 -33.90625 36.171875 C-35.22659241 37.4982901 -35.22659241 37.4982901 -36.5736084 38.85150146 C-37.38785278 39.65944153 -38.20209717 40.46738159 -39.04101562 41.29980469 C-39.75890259 42.01610046 -40.47678955 42.73239624 -41.21643066 43.47039795 C-43 45 -43 45 -45 45 C-45.88608274 32.59484168 -45.43810578 23.50085522 -38 13 C-29.81552041 3.64630904 -12.59784211 -6.29892106 0 0 Z " fill="#3AA0E9" transform="translate(264,94)"/>
<path d="M0 0 C0.56709629 12.55488169 0.29427233 22.38761914 -8.3125 32.375 C-15.51717378 39.79123027 -22.48274261 44.88691857 -33.1328125 45.1796875 C-37.09233521 45.2160375 -41.04274883 45.13109912 -45 45 C-43.53091388 41.61037866 -41.64216474 39.38914109 -39.04101562 36.78222656 C-38.22677124 35.96167786 -37.41252686 35.14112915 -36.5736084 34.29571533 C-35.69338013 33.41953552 -34.81315186 32.54335571 -33.90625 31.640625 C-33.0037854 30.73624695 -32.1013208 29.8318689 -31.17150879 28.90008545 C-29.26404896 26.99126509 -27.35469588 25.08459451 -25.44189453 23.18115234 C-22.98693691 20.73762119 -20.54111007 18.28517765 -18.09784698 15.82995987 C-15.76799406 13.49116087 -13.43055469 11.15997507 -11.09375 8.828125 C-10.21352173 7.94384827 -9.33329346 7.05957153 -8.4263916 6.14849854 C-7.61214722 5.34055847 -6.79790283 4.53261841 -5.95898438 3.70019531 C-5.24109741 2.98389954 -4.52321045 2.26760376 -3.78356934 1.52960205 C-2 0 -2 0 0 0 Z " fill="#39A0E9" transform="translate(293,123)"/>
<path d="M0 0 C2.98391936 1.34780797 5.56660291 2.79260296 8 5 C9.11854967 7.99641802 8.89670029 10.77779195 8.6875 13.9375 C8.65479004 14.8464502 8.62208008 15.75540039 8.58837891 16.69189453 C8.44935055 19.80065135 8.23249074 22.89687509 8 26 C7.92313965 27.12776855 7.8462793 28.25553711 7.76708984 29.41748047 C6.06854458 53.01199541 1.94796853 76.10981259 -4 99 C-8.75 97.125 -8.75 97.125 -11 96 C-10.34768515 89.44357013 -9.34646734 83.03489278 -8.125 76.5625 C-7.76485088 74.60691324 -7.40548609 72.65118189 -7.046875 70.6953125 C-6.86962891 69.73141602 -6.69238281 68.76751953 -6.50976562 67.77441406 C-6.25743164 66.4010791 -6.25743164 66.4010791 -6 65 C-5.85240234 64.19788086 -5.70480469 63.39576172 -5.55273438 62.56933594 C-1.77562807 41.81315225 -0.61615132 21.06686493 0 0 Z " fill="#E65C5C" transform="translate(325,183)"/>
<path d="M0 0 C0.01458252 0.55945313 0.02916504 1.11890625 0.04418945 1.6953125 C0.804499 28.43241699 3.23023977 54.39887858 8.6953125 80.5625 C11.50916802 94.14245387 11.50916802 94.14245387 9.8125 97 C8 98 8 98 4 98 C-2.22963251 79.48511455 -5.09711812 59.40496987 -7 40 C-7.11085937 38.90042969 -7.22171875 37.80085938 -7.3359375 36.66796875 C-7.64231241 33.11153565 -7.83694305 29.56598457 -8 26 C-8.04995117 25.15083008 -8.09990234 24.30166016 -8.15136719 23.42675781 C-8.30663766 20.59727494 -8.40817652 17.76969558 -8.5 14.9375 C-8.55494629 14.03233643 -8.60989258 13.12717285 -8.66650391 12.19458008 C-8.793155 5.88037223 -8.793155 5.88037223 -6.44140625 3.27001953 C-1.9512987 0 -1.9512987 0 0 0 Z " fill="#E65C5C" transform="translate(187,183)"/>
<path d="M0 0 C2.16040039 1.34179688 2.16040039 1.34179688 4 4 C4.59974549 7.6531543 4.53605607 11.27408966 4.49609375 14.96875 C4.49754898 16.04120972 4.49900421 17.11366943 4.50050354 18.21862793 C4.49884444 20.48480955 4.48728208 22.75100243 4.46655273 25.01708984 C4.43760727 28.4871402 4.44594252 31.95566221 4.45898438 35.42578125 C4.4527467 37.6276116 4.44435553 39.82943712 4.43359375 42.03125 C4.43652939 43.06987183 4.43946503 44.10849365 4.44248962 45.17858887 C4.42346336 46.6302948 4.42346336 46.6302948 4.40405273 48.11132812 C4.39864975 48.9608606 4.39324677 49.81039307 4.38768005 50.68566895 C3.90712792 53.55441786 3.03169302 54.93434932 1 57 C-4.96188619 57.74523577 -4.96188619 57.74523577 -7.69448853 55.78356934 C-9.42435505 53.42025278 -9.38036771 51.94081605 -9.38818359 49.02539062 C-9.39764008 48.01424194 -9.40709656 47.00309326 -9.4168396 45.96130371 C-9.41076691 44.87063599 -9.40469421 43.77996826 -9.3984375 42.65625 C-9.40130768 41.53561157 -9.40417786 40.41497314 -9.40713501 39.26037598 C-9.40917747 36.88988744 -9.40363499 34.51938212 -9.39111328 32.14892578 C-9.375063 28.51426617 -9.39095669 24.88071865 -9.41015625 21.24609375 C-9.40817385 18.94531004 -9.40433025 16.64452702 -9.3984375 14.34375 C-9.40451019 13.25308228 -9.41058289 12.16241455 -9.4168396 11.03869629 C-9.40738312 10.02754761 -9.39792664 9.01639893 -9.38818359 7.97460938 C-9.38579681 7.0843103 -9.38341003 6.19401123 -9.38095093 5.2767334 C-8.48234724 -0.09372476 -4.89952071 -0.69993153 0 0 Z " fill="#FDAD0D" transform="translate(289,358)"/>
<path d="M0 0 C2.2454279 1.62259078 2.92019212 2.52303236 3.38095093 5.2767334 C3.38333771 6.16703247 3.38572449 7.05733154 3.38818359 7.97460938 C3.40236832 9.4913324 3.40236832 9.4913324 3.4168396 11.03869629 C3.41076691 12.12936401 3.40469421 13.22003174 3.3984375 14.34375 C3.40274277 16.02470764 3.40274277 16.02470764 3.40713501 17.73962402 C3.40917747 20.11011256 3.40363499 22.48061788 3.39111328 24.85107422 C3.375063 28.48573383 3.39095669 32.11928135 3.41015625 35.75390625 C3.40817385 38.05468996 3.40433025 40.35547298 3.3984375 42.65625 C3.40754654 44.29225159 3.40754654 44.29225159 3.4168396 45.96130371 C3.40738312 46.97245239 3.39792664 47.98360107 3.38818359 49.02539062 C3.38579681 49.9156897 3.38341003 50.80598877 3.38095093 51.7232666 C2.91810878 54.48941859 2.25912751 55.37302133 0 57 C-3.5 57.5 -3.5 57.5 -7 57 C-11.08224753 52.50641329 -10.41641526 47.08106779 -10.36328125 41.37109375 C-10.36377975 40.34444107 -10.36427826 39.31778839 -10.36479187 38.26002502 C-10.36245548 36.09398458 -10.35275267 33.92794121 -10.33618164 31.76196289 C-10.31255969 28.44587966 -10.31562792 25.1305993 -10.32226562 21.81445312 C-10.31668955 19.70832854 -10.30958012 17.60220734 -10.30078125 15.49609375 C-10.30169266 14.50435654 -10.30260406 13.51261932 -10.30354309 12.49082947 C-10.29401108 11.56629471 -10.28447906 10.64175995 -10.2746582 9.68920898 C-10.27005081 8.8782225 -10.26544342 8.06723602 -10.26069641 7.23167419 C-9.9690395 4.73496472 -9.3302195 3.12461722 -8 1 C-5.20129973 -0.39935013 -3.09501208 -0.25265405 0 0 Z " fill="#FDAD0D" transform="translate(259,358)"/>
<path d="M0 0 C3.375 0.9375 3.375 0.9375 5.375 3.9375 C5.63569641 6.17626953 5.63569641 6.17626953 5.6496582 8.8203125 C5.65919022 9.81144043 5.66872223 10.80256836 5.67854309 11.82373047 C5.67763168 12.89252441 5.67672028 13.96131836 5.67578125 15.0625 C5.68006638 16.16094238 5.6843515 17.25938477 5.68876648 18.39111328 C5.69451185 20.71451121 5.69500853 23.03792713 5.69067383 25.36132812 C5.68751244 28.92348766 5.71097628 32.48481812 5.73632812 36.046875 C5.73860087 38.30208228 5.73930473 40.5572918 5.73828125 42.8125 C5.747491 43.88129395 5.75670074 44.95008789 5.76618958 46.05126953 C5.75996078 47.04239746 5.75373199 48.03352539 5.74731445 49.0546875 C5.74794388 49.92722168 5.7485733 50.79975586 5.7492218 51.69873047 C5.29074383 54.44155972 4.61460576 55.32310534 2.375 56.9375 C-1.125 57.375 -1.125 57.375 -4.625 56.9375 C-7.43148335 54.08410917 -8.00399588 51.98861558 -8.02905273 48.04882812 C-8.04173691 47.08102417 -8.05442108 46.11322021 -8.06748962 45.11608887 C-8.06455399 44.07746704 -8.06161835 43.03884521 -8.05859375 41.96875 C-8.0638356 40.89629028 -8.06907745 39.82383057 -8.07447815 38.71887207 C-8.08089803 36.4527269 -8.07956182 34.18654841 -8.07104492 31.92041016 C-8.06253127 28.45024428 -8.09130454 24.98172215 -8.12304688 21.51171875 C-8.12465885 19.30989633 -8.12408142 17.10807099 -8.12109375 14.90625 C-8.13232773 13.86762817 -8.14356171 12.82900635 -8.15513611 11.75891113 C-8.08598281 4.62457707 -8.08598281 4.62457707 -5.82055664 1.24804688 C-3.625 -0.0625 -3.625 -0.0625 0 0 Z " fill="#FDAD0D" transform="translate(226.625,358.0625)"/>
<path d="M0 0 C8.79239716 6.37966865 15.37775776 14.71603295 17.5703125 25.49609375 C18.47462945 34.25346494 18.62285898 43.49804918 14.5703125 51.49609375 C14.15652344 52.32496094 13.74273437 53.15382812 13.31640625 54.0078125 C7.43287022 64.7328414 -0.78285938 70.27368605 -12.27734375 74.11328125 C-24.98633208 76.37368208 -36.2606763 74.05503804 -47.07421875 67.21484375 C-55.29201422 61.21844241 -59.27093296 52.97235736 -62.4296875 43.49609375 C-63.2796545 29.78515071 -62.60652701 18.50495712 -53.40625 7.5625 C-47.30120667 1.1799547 -40.82878152 -2.80575169 -32.4296875 -5.50390625 C-31.81867188 -5.70628906 -31.20765625 -5.90867187 -30.578125 -6.1171875 C-20.33897923 -7.96023374 -8.74306787 -5.411706 0 0 Z M-51.17578125 9.41015625 C-57.23455934 16.99496074 -60.18073071 24.60608808 -60.0546875 34.30859375 C-60.04775879 35.18153076 -60.04083008 36.05446777 -60.03369141 36.95385742 C-59.77890978 44.55296585 -57.83146147 50.23827224 -53.4296875 56.49609375 C-52.74519531 57.51896484 -52.74519531 57.51896484 -52.046875 58.5625 C-47.35860431 64.76441236 -39.78802841 69.1906908 -32.4296875 71.49609375 C-21.28820664 72.77785704 -10.0406203 72.32159214 -0.75390625 65.54296875 C7.20046408 58.80237641 13.6711597 51.10198512 14.79003906 40.39306641 C15.25532267 31.5780926 15.62584318 23.08731379 10.5703125 15.49609375 C10.16941406 14.82707031 9.76851563 14.15804687 9.35546875 13.46875 C4.02644625 5.4211537 -4.43169882 -0.8275559 -13.83984375 -3.1015625 C-28.38870724 -5.36179318 -41.1661995 -1.56231591 -51.17578125 9.41015625 Z " fill="#C9D3E1" transform="translate(278.4296875,96.50390625)"/>
<path d="M0 0 C1.87898254 0.89506531 1.87898254 0.89506531 4.87898254 2.89506531 C4.36637799 7.08655561 2.0998077 9.03680275 -0.8243866 11.93901062 C-1.31221115 12.42727325 -1.80003571 12.91553589 -2.30264282 13.41859436 C-3.91347636 15.02734137 -5.53466739 16.62520727 -7.15617371 18.22319031 C-8.27640974 19.33782992 -9.39598435 20.45313464 -10.5149231 21.56907654 C-13.45929863 24.50200702 -16.4125724 27.42581627 -19.36778259 30.3478241 C-22.38274489 33.33207835 -25.38921468 36.3248612 -28.39640808 39.31694031 C-34.29632736 45.18470141 -40.20567319 51.04285482 -46.12101746 56.89506531 C-48.58901792 55.74333176 -50.16885311 54.84722965 -52.12101746 52.89506531 C-51.91724072 48.82038725 -49.32375516 46.70493082 -46.57292175 43.92704773 C-46.10127594 43.44693237 -45.62963013 42.96681702 -45.14369202 42.47215271 C-43.58529392 40.89038947 -42.01597187 39.32004002 -40.44523621 37.75053406 C-39.35735954 36.65555756 -38.26978327 35.56028255 -37.18249512 34.46472168 C-34.90358089 32.17236522 -32.61881768 29.88603047 -30.33024597 27.60331726 C-27.39424352 24.67322267 -24.47693212 21.7252613 -21.56415081 18.77210522 C-19.3242977 16.50644685 -17.07312025 14.2523135 -14.81850624 12.00135231 C-13.73764213 10.91879145 -12.660773 9.83222687 -11.58797264 8.74167442 C-10.08934349 7.22098847 -8.5757848 5.71692988 -7.05729675 4.21611023 C-6.19871567 3.3554747 -5.34013458 2.49483917 -4.45553589 1.60812378 C-2.12101746 -0.10493469 -2.12101746 -0.10493469 0 0 Z " fill="#39A0E9" transform="translate(277.1210174560547,100.10493469238281)"/>
<path d="M0 0 C24.09 0 48.18 0 73 0 C73 2.64 73 5.28 73 8 C48.91 8 24.82 8 0 8 C0 5.36 0 2.72 0 0 Z " fill="#65687A" transform="translate(219,316)"/>
<path d="M0 0 C0.33 0.99 0.66 1.98 1 3 C3.70992619 4.07989764 3.70992619 4.07989764 7 5 C10.0664262 6.24141347 13.12516318 7.49560034 16.16992188 8.7890625 C35.52055144 16.74633073 59.87483569 15.13721653 79.0703125 7.3984375 C81.52329214 6.37310353 83.92618809 5.29141218 86.33984375 4.171875 C89 3 89 3 91 3 C91.33 2.01 91.66 1.02 92 0 C92.99 2.97 92.99 2.97 94 6 C70.83747358 17.5488227 44.42053959 22.81409583 19 15 C12.14137979 12.60418061 5.05949483 10.03966322 -1 6 C-0.67 4.02 -0.34 2.04 0 0 Z " fill="#D0CDD7" transform="translate(210,64)"/>
<path d="M0 0 C0 0.33 0 0.66 0 1 C-0.88945312 1.23460938 -1.77890625 1.46921875 -2.6953125 1.7109375 C-6.38645458 3.15074469 -8.17523386 4.76161167 -10.875 7.625 C-11.65617188 8.44226562 -12.43734375 9.25953125 -13.2421875 10.1015625 C-13.82226562 10.72804688 -14.40234375 11.35453125 -15 12 C-15.66 11.67 -16.32 11.34 -17 11 C-15.54540569 9.35086118 -14.08620743 7.70578218 -12.625 6.0625 C-11.81289062 5.14597656 -11.00078125 4.22945313 -10.1640625 3.28515625 C-6.78832278 -0.27947865 -4.78756948 -0.1040776 0 0 Z " fill="#EF9499" transform="translate(259,0)"/>
</svg>
